<svg id="Layer_1" data-name="Layer 1" xmlns="http://www.w3.org/2000/svg" viewBox="0 0 200 93.376"><defs><style>.cls-1{fill:#b8c6c1;}.cls-2{fill:#3f6664;}.cls-3{fill:#fff;}</style></defs><title>FROG_analysis_green_BG_outline</title><g id="FROG_analysis_green_BG_outline"><rect id="BG" class="cls-1" width="200" height="93.376" rx="10.824"/><g id="TEXT"><g id="analysis"><path class="cls-2" d="M19.464,119.518a5.589,5.589,0,0,1-1.606,1,4.651,4.651,0,0,1-1.656.292,3.219,3.219,0,0,1-2.244-.714,2.353,2.353,0,0,1-.785-1.823,2.413,2.413,0,0,1,.3-1.188,2.438,2.438,0,0,1,.776-.864,3.633,3.633,0,0,1,1.08-.492,10.824,10.824,0,0,1,1.335-.226,13.71,13.71,0,0,0,2.678-.517c.006-.206.008-.337.008-.392a1.656,1.656,0,0,0-.425-1.293,2.51,2.51,0,0,0-1.71-.509,2.658,2.658,0,0,0-1.565.371,2.275,2.275,0,0,0-.747,1.314l-1.468-.2a3.645,3.645,0,0,1,.659-1.523,2.879,2.879,0,0,1,1.327-.892,5.877,5.877,0,0,1,2.011-.314,5.315,5.315,0,0,1,1.843.267,2.433,2.433,0,0,1,1.043.672,2.361,2.361,0,0,1,.468,1.022,8.471,8.471,0,0,1,.075,1.385v2a21.213,21.213,0,0,0,.1,2.648,3.333,3.333,0,0,0,.379,1.064H19.765A3.181,3.181,0,0,1,19.464,119.518Zm-.125-3.354a11,11,0,0,1-2.453.568,5.7,5.7,0,0,0-1.31.3,1.3,1.3,0,0,0-.592.489,1.326,1.326,0,0,0,.246,1.714,1.957,1.957,0,0,0,1.331.4,3.1,3.1,0,0,0,1.543-.379,2.336,2.336,0,0,0,.993-1.039,3.633,3.633,0,0,0,.242-1.5Z" transform="translate(0 -53.312)"/><path class="cls-2" d="M29.166,120.611v-8.86h1.351v1.26a3.185,3.185,0,0,1,2.82-1.461,3.718,3.718,0,0,1,1.473.288,2.323,2.323,0,0,1,1,.755,2.9,2.9,0,0,1,.468,1.11,8.68,8.68,0,0,1,.083,1.46v5.448h-1.5v-5.389a4.038,4.038,0,0,0-.175-1.372,1.446,1.446,0,0,0-.621-.727,1.987,1.987,0,0,0-1.048-.271,2.435,2.435,0,0,0-1.656.609,3.007,3.007,0,0,0-.7,2.311v4.839Z" transform="translate(0 -53.312)"/><path class="cls-2" d="M50.432,119.518a5.616,5.616,0,0,1-1.606,1,4.661,4.661,0,0,1-1.657.292,3.219,3.219,0,0,1-2.244-.714,2.353,2.353,0,0,1-.784-1.823,2.413,2.413,0,0,1,.3-1.188,2.438,2.438,0,0,1,.776-.864,3.645,3.645,0,0,1,1.08-.492,10.824,10.824,0,0,1,1.335-.226,13.708,13.708,0,0,0,2.679-.517c0-.206.008-.337.008-.392a1.656,1.656,0,0,0-.426-1.293,2.508,2.508,0,0,0-1.71-.509,2.655,2.655,0,0,0-1.564.371,2.264,2.264,0,0,0-.747,1.314l-1.469-.2a3.646,3.646,0,0,1,.66-1.523,2.876,2.876,0,0,1,1.326-.892,5.885,5.885,0,0,1,2.011-.314,5.325,5.325,0,0,1,1.844.267,2.439,2.439,0,0,1,1.043.672,2.372,2.372,0,0,1,.467,1.022,8.471,8.471,0,0,1,.075,1.385v2a21.213,21.213,0,0,0,.1,2.648,3.312,3.312,0,0,0,.38,1.064H50.732A3.159,3.159,0,0,1,50.432,119.518Zm-.125-3.354a11.014,11.014,0,0,1-2.453.568,5.686,5.686,0,0,0-1.31.3,1.3,1.3,0,0,0-.593.489,1.329,1.329,0,0,0,.246,1.714,1.959,1.959,0,0,0,1.331.4,3.1,3.1,0,0,0,1.544-.379,2.347,2.347,0,0,0,.993-1.039,3.633,3.633,0,0,0,.242-1.5Z" transform="translate(0 -53.312)"/><path class="cls-2" d="M60.1,120.611V108.38h1.5v12.231Z" transform="translate(0 -53.312)"/><path class="cls-2" d="M69.843,124.024l-.166-1.41a3.338,3.338,0,0,0,.859.133,1.639,1.639,0,0,0,.8-.167,1.365,1.365,0,0,0,.492-.467A7.273,7.273,0,0,0,72.288,121c.028-.083.072-.206.134-.367l-3.363-8.877h1.619l1.844,5.131q.358.976.642,2.052a20.251,20.251,0,0,1,.618-2.019l1.893-5.164h1.5l-3.37,9.011a17.8,17.8,0,0,1-.843,2.01,2.98,2.98,0,0,1-.918,1.09,2.181,2.181,0,0,1-1.235.345A3.018,3.018,0,0,1,69.843,124.024Z" transform="translate(0 -53.312)"/><path class="cls-2" d="M83.833,117.967l1.486-.234a2.073,2.073,0,0,0,.7,1.368,2.429,2.429,0,0,0,1.6.476,2.346,2.346,0,0,0,1.535-.421,1.261,1.261,0,0,0,.5-.989.912.912,0,0,0-.442-.8,6.506,6.506,0,0,0-1.536-.509,14.039,14.039,0,0,1-2.29-.721,2.188,2.188,0,0,1-1.3-2.032,2.284,2.284,0,0,1,.271-1.1,2.436,2.436,0,0,1,.738-.838,3.093,3.093,0,0,1,.956-.438,4.558,4.558,0,0,1,1.3-.18,5.13,5.13,0,0,1,1.831.3,2.48,2.48,0,0,1,1.164.814,3.168,3.168,0,0,1,.518,1.372l-1.469.2a1.607,1.607,0,0,0-.58-1.068,2.121,2.121,0,0,0-1.356-.384,2.453,2.453,0,0,0-1.476.342,1,1,0,0,0-.443.8.832.832,0,0,0,.184.526,1.316,1.316,0,0,0,.576.4q.225.084,1.326.384a18.64,18.64,0,0,1,2.224.7,2.268,2.268,0,0,1,.989.788,2.2,2.2,0,0,1,.358,1.285,2.525,2.525,0,0,1-.438,1.415,2.828,2.828,0,0,1-1.264,1.025,4.58,4.58,0,0,1-1.869.364,4.164,4.164,0,0,1-2.632-.718A3.333,3.333,0,0,1,83.833,117.967Z" transform="translate(0 -53.312)"/><path class="cls-2" d="M98.966,110.107V108.38h1.5v1.727Zm0,10.5v-8.86h1.5v8.86Z" transform="translate(0 -53.312)"/><path class="cls-2" d="M108.134,117.967l1.486-.234a2.073,2.073,0,0,0,.7,1.368,2.429,2.429,0,0,0,1.6.476,2.346,2.346,0,0,0,1.535-.421,1.261,1.261,0,0,0,.5-.989.912.912,0,0,0-.442-.8,6.506,6.506,0,0,0-1.536-.509,14.039,14.039,0,0,1-2.29-.721,2.188,2.188,0,0,1-1.3-2.032,2.284,2.284,0,0,1,.271-1.1,2.436,2.436,0,0,1,.738-.838,3.093,3.093,0,0,1,.956-.438,4.558,4.558,0,0,1,1.3-.18,5.13,5.13,0,0,1,1.831.3,2.48,2.48,0,0,1,1.164.814,3.168,3.168,0,0,1,.518,1.372l-1.469.2a1.607,1.607,0,0,0-.58-1.068,2.121,2.121,0,0,0-1.356-.384,2.453,2.453,0,0,0-1.476.342,1,1,0,0,0-.443.8.832.832,0,0,0,.184.526,1.316,1.316,0,0,0,.576.4q.225.084,1.326.384a18.64,18.64,0,0,1,2.224.7,2.268,2.268,0,0,1,.989.788,2.2,2.2,0,0,1,.358,1.285,2.525,2.525,0,0,1-.438,1.415,2.828,2.828,0,0,1-1.264,1.025,4.58,4.58,0,0,1-1.869.364,4.164,4.164,0,0,1-2.632-.718A3.333,3.333,0,0,1,108.134,117.967Z" transform="translate(0 -53.312)"/></g><g id="FROG"><path class="cls-2" d="M12.7,103.086V76.25H31.1v4.54H18.122v6.352h11.2v4.539h-11.2v11.405Z" transform="translate(0 -53.312)"/><path class="cls-2" d="M35.585,103.086V76.25h11.4a19.481,19.481,0,0,1,6.251.724,6.161,6.161,0,0,1,3.121,2.571,7.735,7.735,0,0,1,1.172,4.229,7.164,7.164,0,0,1-1.776,4.988,8.523,8.523,0,0,1-5.308,2.48,12.692,12.692,0,0,1,2.9,2.252,30.642,30.642,0,0,1,3.085,4.356l3.276,5.236h-6.48l-3.917-5.84A37.57,37.57,0,0,0,46.458,93.3a4.173,4.173,0,0,0-1.629-1.118,8.974,8.974,0,0,0-2.727-.3H41v11.2ZM41,87.6h4.009a20.682,20.682,0,0,0,4.869-.329,2.92,2.92,0,0,0,1.52-1.135,3.5,3.5,0,0,0,.549-2.014,3.218,3.218,0,0,0-.723-2.187,3.324,3.324,0,0,0-2.041-1.053q-.658-.09-3.954-.091H41Z" transform="translate(0 -53.312)"/><path class="cls-2" d="M61.542,89.833a17.061,17.061,0,0,1,1.226-6.883,12.627,12.627,0,0,1,2.5-3.679,10.449,10.449,0,0,1,3.469-2.417,14.743,14.743,0,0,1,5.784-1.061,12.6,12.6,0,0,1,9.491,3.679q3.561,3.68,3.561,10.233,0,6.5-3.533,10.168a12.5,12.5,0,0,1-9.446,3.67,12.63,12.63,0,0,1-9.518-3.651Q61.541,96.238,61.542,89.833Zm5.583-.183q0,4.557,2.105,6.91a7.237,7.237,0,0,0,10.663.018q2.078-2.333,2.077-7,0-4.612-2.022-6.882a7.495,7.495,0,0,0-10.773.027Q67.125,85.019,67.125,89.65Z" transform="translate(0 -53.312)"/><path class="cls-2" d="M104.284,93.219V88.7h11.679v10.69a14.716,14.716,0,0,1-4.933,2.9,17.957,17.957,0,0,1-6.544,1.254,14.687,14.687,0,0,1-7.341-1.767,11.221,11.221,0,0,1-4.7-5.052,16.314,16.314,0,0,1-1.574-7.148,15.444,15.444,0,0,1,1.757-7.45,11.835,11.835,0,0,1,5.144-5,13.887,13.887,0,0,1,6.425-1.336q5,0,7.807,2.1a9.466,9.466,0,0,1,3.615,5.793l-5.382,1.007a5.68,5.68,0,0,0-2.132-3.121,6.445,6.445,0,0,0-3.908-1.144,7.341,7.341,0,0,0-5.647,2.251q-2.1,2.252-2.1,6.682,0,4.778,2.123,7.167a7.093,7.093,0,0,0,5.565,2.388,9.339,9.339,0,0,0,3.414-.668,11.728,11.728,0,0,0,2.938-1.62V93.219Z" transform="translate(0 -53.312)"/></g></g><g id="FROG-2" data-name="FROG"><g id="BG_CIRCLES"><circle class="cls-3" cx="156.232" cy="30.046" r="6.165"/><circle class="cls-3" cx="124.77" cy="32.62" r="1.982"/><circle class="cls-3" cx="133.893" cy="40.059" r="1.982"/><circle class="cls-3" cx="146.11" cy="42.339" r="1.982"/><circle class="cls-3" cx="132.264" cy="26.864" r="1.982"/><circle class="cls-3" cx="184.641" cy="54.013" r="1.982"/><circle class="cls-3" cx="166.316" cy="60.663" r="1.982"/><circle class="cls-3" cx="162.352" cy="71.352" r="1.982"/><circle class="cls-3" cx="151.831" cy="66.755" r="1.982"/><circle class="cls-3" cx="147.018" cy="55.833" r="1.982"/><circle class="cls-3" cx="157.017" cy="49.335" r="1.982"/><circle class="cls-3" cx="174.671" cy="29.525" r="1.982"/><circle class="cls-3" cx="187.844" cy="32.991" r="1.982"/><circle class="cls-3" cx="166.361" cy="46.303" r="1.982"/></g><path id="OUTLINE" class="cls-2" d="M187.844,83.335a2.969,2.969,0,0,0-2.456,1.3L177.627,82.6a2.96,2.96,0,0,0-4.267-2.417l-1.336-1.305a.985.985,0,0,0-.689-.281h-9.786a7.128,7.128,0,0,0-5.317-2.386c-.218,0-.433.014-.646.033l-2.61-3.478a.986.986,0,0,0-1.063-.355l-5.54,1.608a.989.989,0,0,0-.645.592l-1.25,3.236-5.167,1a.97.97,0,0,0-.489.251l-2.785,2.629-.935-.687a2.931,2.931,0,0,0,.129-.863,2.972,2.972,0,1,0-1.3,2.451l1.96,1.441.01.027.321.851h-8.659a2.967,2.967,0,1,0,0,1.972h9.4l.245.648a.985.985,0,0,0,.608.587l.933.314L135.532,90.9a2.968,2.968,0,1,0,1.188,1.573l4.3-3.243,1.773.6,1.387,3.575a2.963,2.963,0,1,0,1.931-.719c-.031,0-.062,0-.092,0l-.793-2.042L156.973,94.6a.958.958,0,0,0,.314.052h5.284l1.6,2.967a2.963,2.963,0,1,0,4.384,3.987l13.131,5.538c0,.059-.009.118-.009.178v.027l-13.066,4.742a2.95,2.95,0,0,0-3.305-.906l-5.752-7.006a2.984,2.984,0,1,0-1.523,1.251l5.632,6.861-13.69-3.426a2.97,2.97,0,1,0-.479,1.912l13.715,3.433-9.183,3.862a2.963,2.963,0,1,0,.774,1.992c0-.059,0-.117-.008-.175l9.332-3.925a3.107,3.107,0,0,0,.3.288L162.4,121.7l-.048,0a2.971,2.971,0,1,0,1.9.687l2.018-5.444.049,0a2.97,2.97,0,0,0,2.967-2.967v-.028l13.066-4.741a2.971,2.971,0,1,0,.1-3.875l-13.131-5.538c0-.059.009-.118.009-.178a2.971,2.971,0,0,0-2.967-2.968,3.011,3.011,0,0,0-.458.039L164.028,93.2a.985.985,0,0,0-.868-.519h-5.711L141.161,87.2h0l-2.266-.764-1.306-3.46,2.379-2.246,5.422-1.052a.988.988,0,0,0,.732-.613l1.27-3.289,4.418-1.283,1.7,2.26a7.151,7.151,0,1,0,9.309,3.815h8.12l1.048,1.024a2.966,2.966,0,0,0,5.144,2.914l7.762,2.043a2.967,2.967,0,1,0,2.956-3.211Zm-56.183-2.382a.984.984,0,0,1,1.186-1.571l.1.071a.991.991,0,0,1-1.179,1.58A1,1,0,0,1,131.661,80.953Zm-6.891,5.965a.986.986,0,0,1,0-1.972h.1a.991.991,0,0,1,0,1.972Zm9.716,7.24a.985.985,0,0,1-1.2-1.561,1.111,1.111,0,0,1,.1-.079.985.985,0,0,1,.507-.144,1,1,0,0,1,.7,1.7Zm11.624.5a.994.994,0,0,1,.882.543c.016.031.025.066.038.1a.986.986,0,0,1-.564,1.273.968.968,0,0,1-.356.067.985.985,0,0,1-.919-.629l-.041-.106a.951.951,0,0,1-.036-.251A1,1,0,0,1,146.11,94.655Zm10.145,8.617a.986.986,0,1,1,1.524-1.25l.078.094a.993.993,0,0,1-1.524,1.251Zm-9.477,6.829a.986.986,0,1,1,.479-1.913l.12.03a1,1,0,0,1-.359,1.923.981.981,0,0,1-.134-.014Zm5.426,10.877a.963.963,0,0,1-.373.075.986.986,0,0,1-.383-1.895l.094-.039a.987.987,0,0,1,.288-.048.992.992,0,0,1,.479,1.864A.8.8,0,0,1,152.2,120.978Zm11.072,4.029a.986.986,0,1,1-1.849-.685l.038-.1a.993.993,0,0,1,1.883.444.978.978,0,0,1-.026.218Zm2.044-11.032a1,1,0,1,1,1,1A1,1,0,0,1,165.32,113.975Zm19.7-7.559a.985.985,0,0,1-.047,1.835l-.136.05a1.012,1.012,0,0,1-.2.02,1,1,0,1,1,.29-1.944Zm-18.663-7.8a1,1,0,1,1-.29,1.944.936.936,0,0,1-.107-.047.979.979,0,0,1-.471-.434l-.059-.108a.992.992,0,0,1,.927-1.355Zm-4.95-15.262a5.176,5.176,0,1,1-5.179-5.178,5.078,5.078,0,0,1,.869.079,5.15,5.15,0,0,1,1.159.335,5.206,5.206,0,0,1,2.326,1.972A5.135,5.135,0,0,1,161.411,83.357Zm13.009.434a.993.993,0,0,1-.438-.248l-.072-.07a.992.992,0,1,1,.761.36,1,1,0,0,1-.146-.014ZM186.848,86.3a1,1,0,0,1,1-1,1.025,1.025,0,0,1,.137.014l.114.03a.986.986,0,1,1-.5,1.907l-.109-.029A1,1,0,0,1,186.848,86.3Z" transform="translate(0 -53.312)"/></g></g></svg>