<svg id="Layer_1" data-name="Layer 1" xmlns="http://www.w3.org/2000/svg" viewBox="0 0 200 93.376"><defs><style>.cls-1{fill:#b8c6c1;}.cls-2{fill:#3f6664;}.cls-3{fill:#fff;}</style></defs><title>FROG_report_green_BG</title><g id="FROG_report_green_BG"><rect id="BG" class="cls-1" width="200" height="93.376" rx="10.824"/><g id="TEXT"><g id="report"><path class="cls-2" d="M14.518,120.426v-8.554h1.3v1.3a3.52,3.52,0,0,1,.922-1.2,1.6,1.6,0,0,1,.93-.29,2.834,2.834,0,0,1,1.49.467l-.5,1.345a2.071,2.071,0,0,0-1.063-.314,1.378,1.378,0,0,0-.854.286,1.541,1.541,0,0,0-.54.793,5.646,5.646,0,0,0-.241,1.691v4.479Z" transform="translate(0 -53.312)"/><path class="cls-2" d="M37.429,117.671l1.5.185a3.656,3.656,0,0,1-1.313,2.038,3.948,3.948,0,0,1-2.448.725,3.908,3.908,0,0,1-2.976-1.156,4.515,4.515,0,0,1-1.1-3.242,4.724,4.724,0,0,1,1.112-3.35,3.761,3.761,0,0,1,2.883-1.192,3.658,3.658,0,0,1,2.8,1.167,4.643,4.643,0,0,1,1.087,3.287c0,.086,0,.215-.008.386H32.588a3.285,3.285,0,0,0,.8,2.159,2.372,2.372,0,0,0,1.788.749,2.221,2.221,0,0,0,1.361-.419A2.792,2.792,0,0,0,37.429,117.671Zm-4.76-2.344h4.776a2.9,2.9,0,0,0-.548-1.619,2.222,2.222,0,0,0-1.8-.837,2.3,2.3,0,0,0-1.679.668A2.644,2.644,0,0,0,32.669,115.327Z" transform="translate(0 -53.312)"/><path class="cls-2" d="M52.294,123.7V111.872h1.321v1.111a3.243,3.243,0,0,1,1.055-.978,2.889,2.889,0,0,1,1.425-.326,3.385,3.385,0,0,1,1.933.563,3.46,3.46,0,0,1,1.265,1.591,5.82,5.82,0,0,1,.427,2.251,5.718,5.718,0,0,1-.471,2.364,3.555,3.555,0,0,1-1.37,1.611,3.517,3.517,0,0,1-1.888.56,2.728,2.728,0,0,1-1.3-.306,2.969,2.969,0,0,1-.947-.773V123.7Zm1.313-7.507a3.717,3.717,0,0,0,.668,2.44,2.048,2.048,0,0,0,1.619.79,2.1,2.1,0,0,0,1.655-.818,3.876,3.876,0,0,0,.689-2.533,3.779,3.779,0,0,0-.673-2.448,2.026,2.026,0,0,0-1.607-.814,2.09,2.09,0,0,0-1.639.866A3.876,3.876,0,0,0,53.607,116.2Z" transform="translate(0 -53.312)"/><path class="cls-2" d="M72.475,116.149a4.409,4.409,0,0,1,1.321-3.52,3.981,3.981,0,0,1,2.69-.95,3.837,3.837,0,0,1,2.883,1.155,4.4,4.4,0,0,1,1.12,3.194,5.642,5.642,0,0,1-.5,2.6,3.5,3.5,0,0,1-1.441,1.47,4.2,4.2,0,0,1-2.066.524,3.844,3.844,0,0,1-2.9-1.152A4.6,4.6,0,0,1,72.475,116.149Zm1.49,0a3.635,3.635,0,0,0,.717,2.46,2.386,2.386,0,0,0,3.6,0A3.727,3.727,0,0,0,79,116.1a3.538,3.538,0,0,0-.721-2.4,2.391,2.391,0,0,0-3.6,0A3.622,3.622,0,0,0,73.965,116.149Z" transform="translate(0 -53.312)"/><path class="cls-2" d="M93.719,120.426v-8.554h1.3v1.3a3.532,3.532,0,0,1,.923-1.2,1.6,1.6,0,0,1,.93-.29,2.834,2.834,0,0,1,1.49.467l-.5,1.345a2.065,2.065,0,0,0-1.063-.314,1.375,1.375,0,0,0-.853.286,1.541,1.541,0,0,0-.54.793,5.645,5.645,0,0,0-.242,1.691v4.479Z" transform="translate(0 -53.312)"/><path class="cls-2" d="M113.939,119.129l.21,1.28a5.37,5.37,0,0,1-1.095.129,2.487,2.487,0,0,1-1.225-.249,1.4,1.4,0,0,1-.612-.657,5.191,5.191,0,0,1-.177-1.711V113h-1.063v-1.127h1.063v-2.118l1.442-.87v2.988h1.457V113h-1.457v5a2.534,2.534,0,0,0,.076.8.6.6,0,0,0,.25.281.959.959,0,0,0,.495.105A4.8,4.8,0,0,0,113.939,119.129Z" transform="translate(0 -53.312)"/></g><g id="FROG"><path class="cls-2" d="M12.7,103.589V76.754H31.1v4.54H18.122v6.352h11.2v4.539h-11.2v11.4Z" transform="translate(0 -53.312)"/><path class="cls-2" d="M35.585,103.589V76.754h11.4a19.516,19.516,0,0,1,6.251.723,6.168,6.168,0,0,1,3.121,2.572,7.731,7.731,0,0,1,1.172,4.228,7.164,7.164,0,0,1-1.776,4.989,8.528,8.528,0,0,1-5.308,2.48A12.689,12.689,0,0,1,53.35,94a30.607,30.607,0,0,1,3.085,4.357l3.276,5.235h-6.48L49.314,97.75a37.57,37.57,0,0,0-2.856-3.944,4.152,4.152,0,0,0-1.629-1.118,8.974,8.974,0,0,0-2.727-.3H41v11.2ZM41,88.1h4.009a20.74,20.74,0,0,0,4.869-.329,2.92,2.92,0,0,0,1.52-1.135,3.5,3.5,0,0,0,.549-2.014,3.221,3.221,0,0,0-.723-2.188,3.323,3.323,0,0,0-2.041-1.052q-.658-.092-3.954-.091H41Z" transform="translate(0 -53.312)"/><path class="cls-2" d="M61.542,90.336a17.06,17.06,0,0,1,1.226-6.882,12.632,12.632,0,0,1,2.5-3.68,10.461,10.461,0,0,1,3.469-2.416A14.743,14.743,0,0,1,74.52,76.3a12.6,12.6,0,0,1,9.491,3.68q3.561,3.68,3.561,10.232,0,6.5-3.533,10.168a12.5,12.5,0,0,1-9.446,3.671,12.631,12.631,0,0,1-9.518-3.652Q61.541,96.742,61.542,90.336Zm5.583-.183q0,4.558,2.105,6.911a7.236,7.236,0,0,0,10.663.017q2.078-2.333,2.077-7,0-4.612-2.022-6.883a7.5,7.5,0,0,0-10.773.028Q67.125,85.522,67.125,90.153Z" transform="translate(0 -53.312)"/><path class="cls-2" d="M104.284,93.723V89.2h11.679v10.69a14.716,14.716,0,0,1-4.933,2.9,17.957,17.957,0,0,1-6.544,1.254,14.687,14.687,0,0,1-7.341-1.767,11.221,11.221,0,0,1-4.7-5.052,16.317,16.317,0,0,1-1.574-7.148,15.441,15.441,0,0,1,1.757-7.45,11.83,11.83,0,0,1,5.144-5,13.874,13.874,0,0,1,6.425-1.337q5,0,7.807,2.1a9.463,9.463,0,0,1,3.615,5.793l-5.382,1.007a5.686,5.686,0,0,0-2.132-3.122,6.451,6.451,0,0,0-3.908-1.143,7.341,7.341,0,0,0-5.647,2.251q-2.1,2.252-2.1,6.681,0,4.779,2.123,7.167a7.091,7.091,0,0,0,5.565,2.389,9.339,9.339,0,0,0,3.414-.668,11.76,11.76,0,0,0,2.938-1.62V93.723Z" transform="translate(0 -53.312)"/></g></g><g id="FROG-2" data-name="FROG"><g id="BG_CIRCLES"><circle class="cls-3" cx="156.232" cy="30.046" r="6.165"/><circle class="cls-3" cx="124.77" cy="32.62" r="1.982"/><circle class="cls-3" cx="133.893" cy="40.059" r="1.982"/><circle class="cls-3" cx="146.11" cy="42.339" r="1.982"/><circle class="cls-3" cx="132.264" cy="26.864" r="1.982"/><circle class="cls-3" cx="184.641" cy="54.013" r="1.982"/><circle class="cls-3" cx="166.316" cy="60.663" r="1.982"/><circle class="cls-3" cx="162.352" cy="71.352" r="1.982"/><circle class="cls-3" cx="151.831" cy="66.755" r="1.982"/><circle class="cls-3" cx="147.018" cy="55.833" r="1.982"/><circle class="cls-3" cx="157.017" cy="49.335" r="1.982"/><circle class="cls-3" cx="174.671" cy="29.525" r="1.982"/><circle class="cls-3" cx="187.844" cy="32.991" r="1.982"/><circle class="cls-3" cx="166.361" cy="46.303" r="1.982"/></g><path id="OUTLINE" class="cls-2" d="M187.844,83.335a2.969,2.969,0,0,0-2.456,1.3L177.627,82.6a2.96,2.96,0,0,0-4.267-2.417l-1.336-1.305a.985.985,0,0,0-.689-.281h-9.786a7.128,7.128,0,0,0-5.317-2.386c-.218,0-.433.014-.646.033l-2.61-3.478a.986.986,0,0,0-1.063-.355l-5.54,1.608a.989.989,0,0,0-.645.592l-1.25,3.236-5.167,1a.97.97,0,0,0-.489.251l-2.785,2.629-.935-.687a2.931,2.931,0,0,0,.129-.863,2.972,2.972,0,1,0-1.3,2.451l1.96,1.441.01.027.321.851h-8.659a2.967,2.967,0,1,0,0,1.972h9.4l.245.648a.985.985,0,0,0,.608.587l.933.314L135.532,90.9a2.968,2.968,0,1,0,1.188,1.573l4.3-3.243,1.773.6,1.387,3.575a2.963,2.963,0,1,0,1.931-.719c-.031,0-.062,0-.092,0l-.793-2.042L156.973,94.6a.958.958,0,0,0,.314.052h5.284l1.6,2.967a2.963,2.963,0,1,0,4.384,3.987l13.131,5.538c0,.059-.009.118-.009.178v.027l-13.066,4.742a2.95,2.95,0,0,0-3.305-.906l-5.752-7.006a2.984,2.984,0,1,0-1.523,1.251l5.632,6.861-13.69-3.426a2.97,2.97,0,1,0-.479,1.912l13.715,3.433-9.183,3.862a2.963,2.963,0,1,0,.774,1.992c0-.059,0-.117-.008-.175l9.332-3.925a3.107,3.107,0,0,0,.3.288L162.4,121.7l-.048,0a2.971,2.971,0,1,0,1.9.687l2.018-5.444.049,0a2.97,2.97,0,0,0,2.967-2.967v-.028l13.066-4.741a2.971,2.971,0,1,0,.1-3.875l-13.131-5.538c0-.059.009-.118.009-.178a2.971,2.971,0,0,0-2.967-2.968,3.011,3.011,0,0,0-.458.039L164.028,93.2a.985.985,0,0,0-.868-.519h-5.711L141.161,87.2h0l-2.266-.764-1.306-3.46,2.379-2.246,5.422-1.052a.988.988,0,0,0,.732-.613l1.27-3.289,4.418-1.283,1.7,2.26a7.151,7.151,0,1,0,9.309,3.815h8.12l1.048,1.024a2.966,2.966,0,0,0,5.144,2.914l7.762,2.043a2.967,2.967,0,1,0,2.956-3.211Zm-56.183-2.382a.984.984,0,0,1,1.186-1.571l.1.071a.991.991,0,0,1-1.179,1.58A1,1,0,0,1,131.661,80.953Zm-6.891,5.965a.986.986,0,0,1,0-1.972h.1a.991.991,0,0,1,0,1.972Zm9.716,7.24a.985.985,0,0,1-1.2-1.561,1.111,1.111,0,0,1,.1-.079.985.985,0,0,1,.507-.144,1,1,0,0,1,.7,1.7Zm11.624.5a.994.994,0,0,1,.882.543c.016.031.025.066.038.1a.986.986,0,0,1-.564,1.273.968.968,0,0,1-.356.067.985.985,0,0,1-.919-.629l-.041-.106a.951.951,0,0,1-.036-.251A1,1,0,0,1,146.11,94.655Zm10.145,8.617a.986.986,0,1,1,1.524-1.25l.078.094a.993.993,0,0,1-1.524,1.251Zm-9.477,6.829a.986.986,0,1,1,.479-1.913l.12.03a1,1,0,0,1-.359,1.923.981.981,0,0,1-.134-.014Zm5.426,10.877a.963.963,0,0,1-.373.075.986.986,0,0,1-.383-1.895l.094-.039a.987.987,0,0,1,.288-.048.992.992,0,0,1,.479,1.864A.8.8,0,0,1,152.2,120.978Zm11.072,4.029a.986.986,0,1,1-1.849-.685l.038-.1a.993.993,0,0,1,1.883.444.978.978,0,0,1-.026.218Zm2.044-11.032a1,1,0,1,1,1,1A1,1,0,0,1,165.32,113.975Zm19.7-7.559a.985.985,0,0,1-.047,1.835l-.136.05a1.012,1.012,0,0,1-.2.02,1,1,0,1,1,.29-1.944Zm-18.663-7.8a1,1,0,1,1-.29,1.944.936.936,0,0,1-.107-.047.979.979,0,0,1-.471-.434l-.059-.108a.992.992,0,0,1,.927-1.355Zm-4.95-15.262a5.176,5.176,0,1,1-5.179-5.178,5.078,5.078,0,0,1,.869.079,5.15,5.15,0,0,1,1.159.335,5.206,5.206,0,0,1,2.326,1.972A5.135,5.135,0,0,1,161.411,83.357Zm13.009.434a.993.993,0,0,1-.438-.248l-.072-.07a.992.992,0,1,1,.761.36,1,1,0,0,1-.146-.014ZM186.848,86.3a1,1,0,0,1,1-1,1.025,1.025,0,0,1,.137.014l.114.03a.986.986,0,1,1-.5,1.907l-.109-.029A1,1,0,0,1,186.848,86.3Z" transform="translate(0 -53.312)"/></g></g></svg>