<?xml version="1.0" standalone="no"?>
<!DOCTYPE svg PUBLIC "-//W3C//DTD SVG 20010904//EN"
 "http://www.w3.org/TR/2001/REC-SVG-20010904/DTD/svg10.dtd">
<svg version="1.0" xmlns="http://www.w3.org/2000/svg"
 width="1163.000000pt" height="1280.000000pt" viewBox="0 0 1163.000000 1280.000000"
 preserveAspectRatio="xMidYMid meet">
<metadata>
Created by potrace 1.15, written by Peter Selinger 2001-2017
</metadata>
<g transform="translate(0.000000,1280.000000) scale(0.100000,-0.100000)"
fill="#000000" stroke="none">
<path d="M5189 11570 c-9 -5 -37 -14 -62 -20 -126 -28 -279 -187 -312 -323 -4
-15 -11 -30 -16 -32 -4 -3 -50 7 -101 22 -84 25 -108 27 -253 28 -171 0 -285
-19 -400 -68 -123 -52 -327 -235 -417 -374 -22 -35 -44 -60 -49 -57 -5 3 -29
36 -53 74 -79 121 -152 178 -276 215 -84 25 -250 26 -332 2 -67 -20 -165 -77
-209 -121 -75 -75 -170 -221 -213 -329 -24 -59 -96 -314 -96 -338 0 -13 -6
-48 -14 -78 -8 -31 -21 -92 -31 -136 -21 -102 -43 -177 -71 -240 -12 -27 -41
-93 -64 -145 -23 -52 -53 -118 -66 -146 -13 -28 -24 -54 -24 -58 0 -3 -8 -25
-19 -49 -10 -23 -33 -78 -51 -122 -41 -101 -135 -293 -201 -410 -47 -83 -179
-333 -220 -415 -39 -81 -79 -170 -79 -177 0 -4 -20 -48 -44 -98 -70 -140 -91
-192 -123 -300 -44 -146 -63 -229 -63 -268 0 -20 -5 -48 -10 -63 -20 -52 -31
-202 -39 -524 -8 -322 -18 -444 -47 -570 -8 -36 -14 -78 -14 -93 0 -16 -6 -52
-14 -80 -23 -90 -36 -150 -42 -202 -6 -46 -17 -79 -94 -285 -16 -41 -40 -106
-54 -144 -14 -38 -30 -74 -35 -80 -4 -6 -21 -42 -36 -80 -15 -39 -51 -120 -80
-180 -29 -61 -63 -136 -75 -166 -12 -30 -30 -73 -40 -95 -39 -87 -90 -228 -90
-246 0 -11 -7 -31 -16 -44 -17 -27 -16 -96 4 -150 6 -16 16 -49 22 -72 29
-113 161 -241 283 -275 114 -32 252 -20 329 29 45 28 47 28 64 6 18 -26 101
-25 120 1 7 11 16 18 18 15 4 -5 22 -94 36 -182 10 -62 34 -152 53 -202 23
-64 128 -184 203 -234 106 -70 257 -86 393 -42 72 24 74 24 121 7 61 -22 101
-15 160 28 90 65 130 193 130 413 0 128 -22 368 -42 453 -5 25 -12 155 -15
290 -3 135 -9 253 -14 262 -14 26 4 29 27 5 98 -101 250 -147 404 -122 l45 7
58 -135 c31 -74 57 -137 57 -141 0 -4 11 -31 24 -59 30 -64 56 -142 56 -166 0
-10 12 -63 26 -117 25 -98 34 -135 55 -244 6 -30 33 -122 60 -205 27 -82 64
-193 80 -245 33 -103 76 -214 115 -298 13 -29 24 -56 24 -60 0 -12 33 -74 58
-109 12 -17 26 -41 31 -54 5 -13 25 -48 45 -78 20 -29 36 -56 36 -61 0 -12
160 -184 283 -305 201 -197 269 -291 392 -535 65 -130 88 -200 169 -515 79
-310 103 -394 122 -422 8 -12 14 -27 14 -33 0 -20 71 -122 122 -176 92 -97
179 -143 303 -159 62 -8 168 8 229 35 42 19 48 20 68 6 28 -20 85 -20 130 -1
104 43 177 217 134 320 -11 24 -20 87 -25 160 -5 67 -13 130 -18 140 -6 11
-13 35 -17 54 -6 32 -74 176 -181 381 -54 105 -87 179 -109 247 -10 29 -22 55
-27 58 -17 11 -9 71 16 106 13 20 21 40 17 44 -4 4 20 4 53 0 161 -18 393
-114 545 -226 97 -71 209 -149 215 -149 3 0 35 -18 71 -41 37 -23 98 -49 138
-59 63 -16 87 -17 201 -8 160 12 189 13 241 3 83 -15 177 36 210 115 17 39 11
118 -10 126 -9 3 -11 37 -8 128 4 107 1 133 -17 187 -12 35 -36 83 -54 106
-17 23 -44 60 -59 81 -58 84 -345 270 -498 323 -137 48 -209 71 -260 84 -67
17 -143 39 -190 56 -19 6 -42 14 -50 17 -15 5 140 36 340 68 191 31 300 101
300 192 0 24 -7 56 -16 71 -15 25 -15 37 -2 127 13 92 13 104 -5 173 -47 189
-247 335 -492 361 -107 11 -210 -2 -320 -40 -201 -69 -271 -90 -307 -90 -38 0
-46 7 -29 26 5 5 16 57 25 116 17 115 9 206 -21 240 -12 13 -14 35 -11 100 3
53 0 104 -9 141 -8 32 -12 61 -9 64 3 3 33 -11 68 -31 69 -40 81 -47 117 -65
31 -17 163 -86 226 -120 28 -15 73 -35 100 -45 28 -11 80 -34 116 -52 36 -18
97 -43 135 -55 38 -12 121 -43 184 -69 156 -65 417 -146 515 -160 44 -6 109
-16 145 -21 36 -5 83 -13 105 -18 22 -6 129 -22 237 -37 109 -15 203 -31 210
-35 10 -6 8 -12 -9 -24 -12 -8 -35 -44 -52 -79 -17 -36 -46 -90 -66 -121 -46
-72 -65 -133 -65 -216 0 -101 21 -157 88 -231 101 -113 186 -167 292 -189 76
-15 315 -14 366 1 31 9 46 9 62 1 39 -21 118 -13 186 18 86 39 163 117 269
272 105 154 113 161 121 117 6 -32 5 -83 -9 -638 l-7 -275 27 -95 c30 -110 87
-203 169 -277 52 -47 155 -103 191 -103 11 0 43 -7 70 -16 57 -17 241 -21 292
-6 17 6 67 8 111 5 113 -8 164 18 225 117 19 31 22 49 22 151 0 70 -4 121 -11
130 -6 8 -14 57 -18 109 -3 52 -15 138 -27 190 -12 52 -25 122 -28 155 -4 33
-13 72 -19 87 -11 28 -11 53 8 319 11 148 36 233 71 242 10 3 19 12 19 21 0 9
8 16 17 16 22 0 121 -55 246 -137 195 -128 353 -185 510 -184 51 0 113 6 138
12 34 9 64 9 117 1 41 -6 86 -7 107 -2 53 12 113 55 128 93 16 37 11 101 -9
118 -10 8 -12 35 -7 125 5 95 3 125 -13 177 -20 68 -66 147 -122 209 -39 43
-219 167 -273 187 -19 7 -56 24 -84 38 -27 13 -86 39 -130 58 -44 18 -102 46
-130 61 -27 15 -67 37 -87 48 -21 12 -79 62 -130 112 -72 71 -101 108 -130
165 -60 121 -60 124 -43 345 18 240 35 364 82 594 29 145 36 204 40 342 4 113
2 177 -6 200 -6 18 -16 78 -22 133 -5 55 -14 114 -19 130 -5 17 -13 55 -19 85
-5 30 -17 87 -26 125 -31 140 -31 151 3 183 18 17 56 36 94 46 34 10 87 25
116 34 102 29 160 137 118 220 -7 15 -16 76 -19 142 -9 177 -69 341 -154 422
-220 209 -355 342 -365 362 -9 17 -8 18 13 12 13 -4 42 -9 64 -12 22 -3 67
-12 100 -20 45 -12 92 -14 190 -10 72 3 193 7 270 8 108 2 147 7 170 20 66 36
95 76 95 130 0 48 -10 78 -27 78 -11 0 -12 10 -6 53 26 175 -9 337 -91 420
-78 78 -158 132 -229 154 -107 34 -149 40 -377 54 -184 11 -250 21 -445 71
-216 55 -211 51 -236 153 -21 85 -114 241 -211 355 -138 163 -185 221 -233
294 -30 44 -73 104 -95 131 -22 28 -60 75 -84 106 -103 135 -268 311 -371 395
-118 97 -307 213 -440 271 -80 35 -312 121 -368 137 -29 8 -77 22 -107 31 -30
9 -118 34 -195 55 -564 153 -798 224 -915 277 -49 22 -166 67 -285 109 -39 14
-58 22 -120 49 -92 41 -217 85 -268 94 -31 6 -66 15 -76 21 -24 12 -180 13
-202 0z m212 -261 c46 -12 107 -32 134 -44 43 -19 168 -68 310 -122 22 -9 49
-19 60 -24 234 -97 422 -158 780 -255 33 -9 89 -26 125 -36 75 -23 83 -25 245
-67 250 -65 556 -180 705 -264 59 -33 133 -83 191 -128 20 -16 40 -29 44 -29
4 0 57 -51 119 -113 126 -128 274 -306 391 -473 98 -139 186 -254 242 -314 59
-63 143 -191 143 -216 0 -12 -7 -28 -16 -35 -9 -7 -40 -50 -69 -94 -71 -108
-183 -214 -271 -256 -55 -26 -82 -33 -134 -33 -64 -1 -67 1 -190 75 -194 117
-313 179 -348 179 -23 0 -51 16 -109 62 -204 160 -501 429 -804 726 -209 204
-235 222 -267 190 -7 -7 -12 -26 -12 -42 0 -27 26 -57 202 -229 343 -336 701
-653 923 -817 190 -141 317 -212 455 -254 71 -22 102 -39 190 -104 275 -205
511 -473 632 -717 l35 -70 6 -795 c6 -814 18 -1350 39 -1707 10 -177 9 -211
-5 -285 -26 -133 -83 -235 -192 -344 -97 -97 -157 -141 -299 -215 -190 -99
-529 -199 -731 -216 -116 -9 -152 -8 -295 12 -531 74 -510 71 -762 109 -98 15
-190 34 -205 41 -16 8 -35 15 -43 15 -21 0 -175 53 -262 90 -40 18 -113 45
-163 62 -49 16 -132 49 -182 74 -51 24 -98 44 -104 44 -12 0 -222 109 -281
147 -21 12 -42 23 -47 23 -27 0 -227 131 -412 271 -63 47 -140 101 -171 120
-32 19 -58 39 -58 45 0 7 41 36 91 65 121 71 179 122 179 158 0 63 -49 67
-122 11 -29 -22 -100 -65 -156 -97 -65 -35 -108 -65 -115 -80 -7 -15 -24 -27
-51 -34 -72 -18 -179 -50 -236 -70 -30 -11 -86 -31 -125 -44 -192 -65 -303
-108 -354 -137 -107 -61 -191 -159 -191 -222 0 -52 70 -161 230 -361 53 -66
111 -142 130 -170 74 -109 175 -241 204 -267 23 -21 42 -28 73 -28 38 0 45 4
67 38 43 67 49 102 42 271 -3 86 -9 188 -12 228 -7 83 4 127 49 196 66 99 180
136 272 89 51 -26 106 -99 135 -179 22 -61 22 -64 6 -130 -25 -104 -45 -200
-56 -281 -6 -40 -15 -83 -20 -96 -16 -42 -42 -268 -37 -310 8 -58 34 -104 71
-127 26 -17 42 -19 107 -14 41 3 109 15 150 26 41 11 90 24 109 29 19 4 49 13
65 19 17 6 57 19 90 30 33 11 98 34 145 52 115 42 170 52 270 47 107 -6 177
-37 245 -109 45 -48 47 -53 41 -91 -4 -23 -16 -53 -27 -69 -18 -25 -97 -78
-159 -106 -43 -20 -154 -43 -206 -43 -123 0 -285 -38 -409 -95 -27 -13 -66
-30 -85 -38 -19 -9 -55 -24 -80 -35 -65 -28 -129 -78 -136 -106 -8 -32 17 -77
61 -110 76 -58 316 -142 520 -181 135 -27 402 -95 486 -124 91 -32 271 -120
329 -160 120 -84 210 -199 210 -268 0 -34 -52 -112 -95 -142 -44 -30 -89 -41
-167 -41 -63 0 -73 4 -155 51 -86 49 -163 101 -274 185 -63 47 -166 109 -200
119 -13 4 -42 18 -64 30 -69 39 -372 129 -505 151 -241 39 -340 1 -340 -129 0
-30 9 -83 19 -118 11 -35 27 -95 36 -134 18 -75 60 -192 74 -209 5 -6 19 -36
31 -66 24 -62 119 -253 171 -345 116 -204 143 -309 103 -388 -51 -98 -168
-217 -214 -217 -45 0 -98 26 -146 72 -94 89 -128 168 -212 503 -17 66 -41 158
-53 205 -12 47 -25 103 -29 125 -18 96 -180 428 -268 550 -71 98 -181 222
-293 330 -187 181 -243 248 -310 375 -16 30 -39 70 -50 88 -11 19 -42 89 -70
155 -27 67 -54 131 -59 142 -5 11 -17 48 -26 83 -9 34 -21 65 -25 68 -5 3 -9
13 -9 23 0 31 -55 203 -81 253 -5 10 -9 26 -9 36 0 10 -6 38 -14 63 -8 24 -19
71 -26 104 -7 33 -21 94 -31 135 -10 41 -23 100 -30 130 -15 72 -33 128 -73
225 -18 44 -46 114 -61 155 -16 41 -32 80 -35 85 -4 6 -21 53 -39 106 -37 114
-42 207 -13 251 27 41 86 79 207 132 61 26 119 53 130 59 11 6 56 12 100 13
61 2 99 9 160 32 124 46 208 89 240 122 16 16 34 30 40 30 7 0 20 9 30 20 10
11 24 20 30 20 7 0 46 30 86 66 96 86 235 154 431 210 125 36 282 39 343 7 42
-22 79 -59 109 -106 9 -15 28 -33 42 -39 21 -10 28 -8 46 9 62 63 -67 219
-213 258 -149 40 -375 -7 -653 -134 -38 -18 -69 -31 -70 -29 -7 11 -78 104
-121 158 -29 36 -85 113 -126 173 -41 59 -89 129 -107 155 -66 96 -191 333
-241 459 -22 54 -49 116 -60 139 -27 55 -101 240 -101 252 0 5 -14 24 -32 41
-55 53 -90 40 -151 -57 -23 -37 -50 -83 -60 -102 -10 -19 -45 -71 -77 -115
-33 -44 -60 -88 -60 -98 0 -10 -19 -49 -43 -85 -24 -37 -54 -89 -67 -117 -13
-27 -43 -79 -67 -114 -24 -36 -52 -83 -64 -105 -24 -48 -115 -180 -176 -255
-78 -96 -77 -163 5 -346 54 -121 166 -328 217 -401 49 -69 55 -86 65 -169 19
-154 -69 -267 -181 -235 -62 18 -122 90 -209 251 -84 156 -138 236 -194 287
-59 55 -89 55 -139 4 -62 -64 -70 -123 -64 -517 2 -181 9 -355 15 -385 40
-209 57 -518 37 -660 -21 -155 -64 -261 -116 -287 -117 -58 -164 -61 -230 -17
-23 16 -60 54 -82 85 -61 90 -70 169 -64 574 3 182 10 373 16 425 6 52 13 124
15 160 3 36 10 121 15 190 17 201 14 441 -5 468 -52 75 -116 41 -176 -92 -10
-21 -18 -43 -18 -50 0 -6 -11 -38 -24 -71 -13 -33 -31 -87 -41 -120 -10 -33
-26 -85 -36 -115 -9 -30 -27 -89 -39 -130 -11 -41 -27 -93 -35 -115 -7 -22
-16 -56 -20 -75 -14 -73 -72 -219 -110 -281 -14 -21 -25 -41 -25 -45 0 -14
-115 -181 -139 -201 -48 -41 -151 -23 -199 36 -25 31 -52 103 -52 140 0 33 28
112 81 228 10 24 19 46 19 49 0 8 24 60 80 179 21 44 59 130 85 190 27 61 51
115 55 120 4 6 28 69 55 140 26 72 56 150 67 174 35 80 67 197 104 386 14 72
32 162 40 200 31 151 47 331 54 625 7 278 13 359 50 615 12 87 53 226 94 319
14 32 26 63 26 67 0 5 10 26 23 47 13 20 45 89 72 152 54 128 199 416 282 559
68 115 183 345 183 363 0 8 4 18 9 24 5 5 29 61 54 124 25 63 62 151 83 195
117 257 158 368 189 520 88 429 127 550 224 694 67 98 133 138 243 147 98 8
173 -19 222 -79 60 -74 144 -264 188 -427 27 -98 43 -119 90 -120 48 0 68 26
101 132 31 98 133 302 186 373 87 115 209 221 302 263 105 47 226 58 324 30
33 -10 139 -40 235 -67 684 -195 1148 -418 1400 -672 104 -105 128 -117 156
-75 14 23 14 28 0 58 -32 66 -214 231 -338 307 -21 12 -38 27 -38 32 0 12 9
11 61 -5 24 -8 114 -37 199 -65 470 -151 795 -279 1145 -451 383 -188 657
-373 870 -589 76 -77 104 -87 130 -47 23 35 8 62 -87 157 -321 324 -864 622
-1663 914 -369 134 -1020 325 -1111 325 -30 0 -91 17 -181 51 -75 28 -158 58
-185 66 l-48 16 5 51 c21 195 66 280 170 327 53 24 103 24 206 -2z m3539
-2264 c0 -8 16 -32 35 -54 44 -48 180 -108 290 -127 22 -3 99 -21 170 -39 136
-35 269 -53 395 -54 88 -1 230 -18 280 -33 52 -15 137 -77 160 -115 27 -46 27
-131 1 -174 -23 -37 -57 -54 -155 -74 -96 -20 -197 -19 -281 5 -180 49 -250
69 -274 79 -29 11 -145 31 -180 31 -12 0 -43 -20 -71 -46 l-50 -47 0 -71 c0
-60 5 -80 33 -134 54 -104 121 -185 265 -319 171 -159 286 -277 316 -323 28
-43 56 -124 56 -162 0 -18 -15 -49 -40 -83 -49 -66 -110 -92 -181 -76 -158 37
-229 -15 -229 -165 0 -65 8 -93 46 -155 12 -19 36 -69 53 -109 31 -72 41 -105
62 -200 14 -62 14 -398 1 -441 -6 -19 -16 -69 -22 -112 -5 -43 -14 -86 -19
-95 -4 -9 -11 -35 -14 -57 -3 -22 -13 -78 -22 -125 -18 -94 -34 -257 -41 -425
-2 -60 -6 -116 -9 -123 -3 -7 0 -72 6 -144 20 -237 108 -438 268 -610 95 -101
178 -166 276 -215 38 -20 76 -40 83 -46 15 -12 235 -111 297 -134 35 -12 170
-98 215 -136 8 -7 30 -34 48 -60 44 -66 45 -130 2 -174 -35 -35 -122 -70 -200
-79 -45 -5 -69 -1 -130 20 -78 27 -213 101 -264 143 -17 14 -39 29 -50 34 -33
15 -58 31 -113 72 -56 41 -208 116 -290 142 -80 26 -189 18 -235 -17 -136
-104 -151 -582 -33 -1078 33 -138 55 -286 49 -325 -15 -89 -71 -177 -137 -211
-40 -21 -185 -9 -253 21 -67 30 -126 105 -150 193 -16 59 -17 85 -4 385 25
604 25 611 -14 847 -25 153 -76 272 -139 324 -80 65 -136 43 -250 -98 -29 -35
-88 -106 -131 -158 -72 -83 -106 -133 -199 -282 -37 -60 -159 -189 -204 -217
-31 -19 -55 -24 -149 -27 -102 -4 -116 -2 -159 19 -57 29 -125 118 -125 165 0
68 40 127 134 198 149 113 282 246 329 328 17 29 30 39 57 44 78 13 311 75
410 109 131 46 300 128 405 197 44 28 121 93 170 143 104 104 167 205 202 327
20 71 23 101 23 267 0 102 -7 330 -15 506 -10 222 -15 588 -15 1196 0 969 4
913 -66 1051 -44 87 -149 242 -229 338 -78 93 -246 257 -345 335 -72 58 -90
74 -90 85 1 3 42 25 93 49 79 37 104 56 177 130 47 48 99 108 115 134 30 46
55 61 55 32z m-5476 -2271 c21 -27 43 -63 120 -200 49 -86 91 -151 186 -284
41 -58 92 -130 112 -160 21 -30 49 -68 63 -84 14 -16 25 -30 25 -32 0 -6 -139
-114 -147 -114 -4 -1 -26 -9 -48 -20 -22 -11 -48 -19 -57 -20 -9 0 -20 -4 -23
-10 -3 -5 -39 -10 -78 -10 -87 0 -148 -18 -282 -80 -22 -10 -52 -22 -67 -25
-15 -4 -32 -13 -39 -21 -6 -8 -17 -14 -25 -14 -26 0 -136 186 -191 322 l-15
37 120 184 c137 209 300 489 309 530 7 33 10 34 37 1z m-957 -1926 c-3 -8 -6
-5 -6 6 -1 11 2 17 5 13 3 -3 4 -12 1 -19z m1843 -122 c0 -35 -20 -106 -31
-106 -7 0 -59 83 -59 94 0 3 7 6 15 6 8 0 24 14 37 30 24 34 38 25 38 -24z"/>
<path d="M6655 10605 c-30 -29 -31 -39 -7 -63 17 -17 42 -20 198 -25 156 -5
195 -10 302 -37 320 -82 577 -234 848 -504 167 -167 293 -327 413 -528 84
-141 106 -168 136 -168 58 0 59 58 3 153 -71 122 -181 287 -258 387 -93 120
-320 348 -425 427 -340 256 -687 383 -1047 383 -134 0 -140 -1 -163 -25z"/>
<path d="M3005 10596 c-40 -17 -82 -68 -112 -134 -29 -67 -30 -116 -2 -136 34
-24 64 -3 94 68 32 73 60 106 92 106 33 0 112 -82 164 -171 56 -94 90 -117
123 -83 25 25 19 53 -30 140 -101 180 -222 257 -329 210z"/>
<path d="M4696 10529 c-57 -45 -34 -100 153 -374 329 -483 759 -992 1161
-1373 370 -352 650 -571 1100 -861 228 -148 291 -192 417 -297 513 -425 793
-944 793 -1466 0 -134 1 -140 25 -163 52 -53 126 -21 146 62 23 101 1 347 -50
536 -95 357 -297 684 -612 993 -202 197 -348 311 -641 497 -254 162 -369 244
-588 416 -572 450 -1193 1136 -1638 1811 -60 91 -125 182 -145 203 -41 43 -80
49 -121 16z"/>
<path d="M2682 9478 c-48 -52 -296 -816 -421 -1298 -34 -131 -43 -147 -83
-155 -50 -11 -182 -82 -231 -125 -142 -126 -205 -337 -179 -599 20 -204 78
-410 125 -445 24 -18 27 -18 51 -2 33 21 33 43 1 137 -14 41 -37 130 -50 198
-67 333 7 575 208 685 61 33 92 35 83 4 -4 -13 -11 -43 -16 -68 -5 -25 -18
-88 -30 -140 -11 -52 -25 -120 -30 -150 -5 -30 -16 -95 -25 -145 -47 -274 -57
-397 -59 -675 -1 -299 8 -382 61 -540 59 -178 109 -210 191 -122 24 26 103
121 176 212 362 451 701 957 952 1423 175 323 414 869 416 949 1 34 -18 58
-47 58 -32 0 -50 -25 -83 -115 -262 -709 -743 -1524 -1331 -2255 -82 -102
-133 -160 -142 -160 -23 0 -62 149 -80 303 -12 104 -7 415 10 582 56 555 269
1400 561 2228 62 174 66 208 30 227 -27 14 -34 13 -58 -12z"/>
<path d="M4221 7741 c-25 -25 -37 -67 -52 -187 -39 -294 102 -727 363 -1116
60 -90 92 -113 127 -91 36 23 25 60 -54 181 -145 223 -259 485 -305 701 -19
87 -21 121 -16 248 3 82 8 171 12 199 4 40 2 54 -11 67 -22 22 -41 21 -64 -2z"/>
<path d="M6043 6660 c-99 -23 -227 -80 -243 -109 -26 -50 24 -86 84 -61 171
70 190 73 386 74 146 0 200 -3 255 -18 260 -66 458 -157 712 -328 119 -79 157
-86 176 -34 13 33 -20 65 -156 154 -252 166 -506 275 -749 322 -136 26 -348
26 -465 0z"/>
<path d="M5539 6328 c-66 -48 -156 -144 -194 -210 -123 -209 -80 -444 120
-654 57 -61 76 -74 101 -74 64 0 71 46 17 105 -141 154 -185 238 -191 367 -4
83 -3 91 30 160 36 76 111 167 172 208 19 13 42 37 51 53 15 26 15 30 1 52
-22 34 -54 32 -107 -7z"/>
<path d="M6027 6270 c-115 -36 -232 -134 -324 -270 -63 -93 -143 -252 -143
-283 0 -12 20 -70 44 -127 75 -181 126 -262 235 -370 234 -232 553 -240 915
-23 73 44 235 163 255 186 7 9 24 17 37 17 32 0 322 -103 599 -213 257 -102
537 -237 664 -321 46 -31 92 -56 101 -56 28 0 53 36 46 65 -25 100 -616 378
-1286 605 -52 18 -103 40 -113 48 -9 9 -52 66 -94 128 -336 499 -651 706 -936
614z m-292 -497 c32 -149 60 -208 145 -294 146 -148 368 -230 627 -233 57 -1
103 -2 103 -3 0 -7 -107 -48 -179 -69 -97 -28 -219 -32 -294 -9 -178 54 -337
225 -428 458 -18 48 -27 87 -24 100 13 45 28 77 36 77 5 0 11 -12 14 -27z"/>
<path d="M3760 4225 c-20 -24 -15 -58 34 -225 161 -554 369 -920 586 -1030 20
-10 63 -24 97 -31 75 -15 121 -5 142 33 24 41 -3 64 -82 70 -36 3 -81 15 -106
28 -192 97 -392 467 -545 1007 -19 66 -39 130 -45 142 -14 25 -62 29 -81 6z"/>
</g>
</svg>
