<svg id="Layer_1" data-name="Layer 1" xmlns="http://www.w3.org/2000/svg" viewBox="0 0 200.154 94.781"><defs><style>.cls-1,.cls-3{fill:#fff;}.cls-1{stroke:#3f6664;stroke-miterlimit:10;stroke-width:2.5px;}.cls-2{fill:#3f6664;}</style></defs><title>MINI_FROG_report_white_BG_outline</title><g id="MINI_FROG_report_white_BG_outline"><rect id="BG" class="cls-1" x="1.25" y="1.25" width="197.654" height="92.281" rx="10.824"/><path id="BG_OULINE" class="cls-2" d="M188.672,147.313H11.328A11.34,11.34,0,0,1,0,135.986V64.014A11.34,11.34,0,0,1,11.328,52.687H188.672A11.34,11.34,0,0,1,200,64.014v71.972A11.34,11.34,0,0,1,188.672,147.313ZM11.328,55.032a8.993,8.993,0,0,0-8.983,8.982v71.972a8.993,8.993,0,0,0,8.983,8.982H188.672a8.993,8.993,0,0,0,8.983-8.982V64.014a8.993,8.993,0,0,0-8.983-8.982Z" transform="translate(0.077 -52.609)"/><g id="TEXT"><g id="report"><path class="cls-2" d="M15.52,130.346v-8.453h1.29v1.281a3.511,3.511,0,0,1,.911-1.186,1.592,1.592,0,0,1,.92-.286,2.8,2.8,0,0,1,1.472.461l-.493,1.33a2.054,2.054,0,0,0-1.051-.311,1.369,1.369,0,0,0-.844.283,1.531,1.531,0,0,0-.533.784,5.581,5.581,0,0,0-.239,1.671v4.426Z" transform="translate(0.077 -52.609)"/><path class="cls-2" d="M38.163,127.624l1.48.183a3.619,3.619,0,0,1-1.3,2.014,4.4,4.4,0,0,1-5.361-.426,4.464,4.464,0,0,1-1.087-3.2A4.667,4.667,0,0,1,33,122.88a3.718,3.718,0,0,1,2.849-1.178,3.614,3.614,0,0,1,2.77,1.154,4.583,4.583,0,0,1,1.075,3.248c0,.085,0,.212-.008.382h-6.3a3.246,3.246,0,0,0,.788,2.133,2.346,2.346,0,0,0,1.767.74,2.191,2.191,0,0,0,1.345-.414A2.753,2.753,0,0,0,38.163,127.624Zm-4.7-2.316h4.721a2.866,2.866,0,0,0-.542-1.6,2.2,2.2,0,0,0-1.775-.828,2.275,2.275,0,0,0-1.659.66A2.616,2.616,0,0,0,33.458,125.308Z" transform="translate(0.077 -52.609)"/><path class="cls-2" d="M52.853,133.586V121.893h1.306v1.1a3.21,3.21,0,0,1,1.042-.967,2.863,2.863,0,0,1,1.409-.322,3.348,3.348,0,0,1,1.911.557,3.423,3.423,0,0,1,1.249,1.572,5.746,5.746,0,0,1,.422,2.225,5.642,5.642,0,0,1-.466,2.336,3.509,3.509,0,0,1-1.353,1.592,3.473,3.473,0,0,1-1.866.553,2.7,2.7,0,0,1-1.286-.3,2.944,2.944,0,0,1-.935-.764v4.115Zm1.3-7.419a3.68,3.68,0,0,0,.66,2.412,2.027,2.027,0,0,0,1.6.78,2.071,2.071,0,0,0,1.636-.808,3.83,3.83,0,0,0,.681-2.5,3.736,3.736,0,0,0-.665-2.42,2,2,0,0,0-1.588-.8,2.066,2.066,0,0,0-1.62.856A3.826,3.826,0,0,0,54.151,126.167Z" transform="translate(0.077 -52.609)"/><path class="cls-2" d="M72.8,126.119a4.355,4.355,0,0,1,1.3-3.478,3.934,3.934,0,0,1,2.659-.939,3.794,3.794,0,0,1,2.849,1.142A4.35,4.35,0,0,1,80.718,126a5.594,5.594,0,0,1-.49,2.567A3.459,3.459,0,0,1,78.8,130.02a4.147,4.147,0,0,1-2.041.517,3.8,3.8,0,0,1-2.87-1.138A4.546,4.546,0,0,1,72.8,126.119Zm1.472,0a3.6,3.6,0,0,0,.709,2.432,2.359,2.359,0,0,0,3.558,0,3.686,3.686,0,0,0,.708-2.475,3.5,3.5,0,0,0-.712-2.376,2.362,2.362,0,0,0-3.554,0A3.579,3.579,0,0,0,74.27,126.119Z" transform="translate(0.077 -52.609)"/><path class="cls-2" d="M93.792,130.346v-8.453h1.29v1.281a3.5,3.5,0,0,1,.911-1.186,1.591,1.591,0,0,1,.919-.286,2.8,2.8,0,0,1,1.473.461l-.494,1.33a2.048,2.048,0,0,0-1.05-.311,1.365,1.365,0,0,0-.844.283,1.526,1.526,0,0,0-.533.784,5.581,5.581,0,0,0-.239,1.671v4.426Z" transform="translate(0.077 -52.609)"/><path class="cls-2" d="M113.776,129.065l.207,1.265a5.317,5.317,0,0,1-1.083.128,2.458,2.458,0,0,1-1.21-.247,1.377,1.377,0,0,1-.6-.649,5.114,5.114,0,0,1-.176-1.691v-4.864h-1.05v-1.114h1.05V119.8l1.425-.859v2.953h1.441v1.114h-1.441v4.943a2.47,2.47,0,0,0,.076.788.59.59,0,0,0,.247.279.952.952,0,0,0,.489.1A4.669,4.669,0,0,0,113.776,129.065Z" transform="translate(0.077 -52.609)"/></g><g id="FROG"><path class="cls-2" d="M13.728,113.707V87.187h18.18v4.486H19.082v6.278H30.154v4.486H19.082v11.27Z" transform="translate(0.077 -52.609)"/><path class="cls-2" d="M36.341,113.707V87.187h11.27a19.274,19.274,0,0,1,6.178.715,6.093,6.093,0,0,1,3.084,2.541,7.643,7.643,0,0,1,1.158,4.179,7.081,7.081,0,0,1-1.755,4.93A8.425,8.425,0,0,1,51.03,102a12.509,12.509,0,0,1,2.867,2.225,30.213,30.213,0,0,1,3.049,4.306l3.238,5.173h-6.4l-3.872-5.77a37.215,37.215,0,0,0-2.822-3.9,4.113,4.113,0,0,0-1.61-1.1,8.859,8.859,0,0,0-2.695-.3H41.7v11.071ZM41.7,98.4h3.962a20.452,20.452,0,0,0,4.812-.326,2.883,2.883,0,0,0,1.5-1.121,3.452,3.452,0,0,0,.542-1.99A3.182,3.182,0,0,0,51.8,92.8a3.276,3.276,0,0,0-2.017-1.04q-.651-.09-3.908-.091H41.7Z" transform="translate(0.077 -52.609)"/><path class="cls-2" d="M61.993,100.61a16.872,16.872,0,0,1,1.212-6.8,12.5,12.5,0,0,1,2.469-3.636A10.336,10.336,0,0,1,69.1,87.784a14.569,14.569,0,0,1,5.717-1.049,12.454,12.454,0,0,1,9.38,3.636q3.517,3.636,3.518,10.112,0,6.423-3.491,10.049a12.357,12.357,0,0,1-9.335,3.628,12.487,12.487,0,0,1-9.407-3.609Q61.992,106.941,61.993,100.61Zm5.517-.181q0,4.5,2.081,6.829a7.15,7.15,0,0,0,10.537.018q2.053-2.305,2.054-6.919,0-4.56-2-6.8a7.4,7.4,0,0,0-10.646.027Q67.511,95.852,67.51,100.429Z" transform="translate(0.077 -52.609)"/><path class="cls-2" d="M104.234,103.957V99.488h11.542v10.565a14.521,14.521,0,0,1-4.876,2.867,17.748,17.748,0,0,1-6.467,1.24,14.512,14.512,0,0,1-7.254-1.746,11.1,11.1,0,0,1-4.65-4.993,16.136,16.136,0,0,1-1.555-7.064,15.275,15.275,0,0,1,1.736-7.363,11.706,11.706,0,0,1,5.084-4.939,13.72,13.72,0,0,1,6.35-1.32q4.938,0,7.715,2.071a9.358,9.358,0,0,1,3.573,5.726l-5.319.994a5.619,5.619,0,0,0-2.107-3.084,6.369,6.369,0,0,0-3.862-1.131,7.254,7.254,0,0,0-5.581,2.226q-2.072,2.224-2.072,6.6,0,4.721,2.1,7.082a7.009,7.009,0,0,0,5.5,2.361,9.226,9.226,0,0,0,3.374-.66,11.575,11.575,0,0,0,2.9-1.6v-3.364Z" transform="translate(0.077 -52.609)"/></g><g id="MINI"><path class="cls-2" d="M14.21,80.909v-14.5H17.1l3.431,10.264q.476,1.433.692,2.145.248-.79.772-2.323l3.47-10.086h2.581v14.5H26.194V68.777L21.982,80.909H20.251L16.059,68.57V80.909Z" transform="translate(0.077 -52.609)"/><path class="cls-2" d="M52.018,80.909v-14.5h1.918v14.5Z" transform="translate(0.077 -52.609)"/><path class="cls-2" d="M77.851,80.909v-14.5h1.968L87.433,77.8V66.414h1.839v14.5H87.3L79.69,69.519v11.39Z" transform="translate(0.077 -52.609)"/><path class="cls-2" d="M113.375,80.909v-14.5h1.918v14.5Z" transform="translate(0.077 -52.609)"/></g></g><g id="FROG-2" data-name="FROG"><g id="BG_CIRCLES"><circle class="cls-3" cx="155.65" cy="30.943" r="6.092"/><circle class="cls-3" cx="124.557" cy="33.487" r="1.959"/><circle class="cls-3" cx="133.572" cy="40.839" r="1.959"/><circle class="cls-3" cx="145.646" cy="43.093" r="1.959"/><circle class="cls-3" cx="131.962" cy="27.799" r="1.959"/><circle class="cls-3" cx="183.726" cy="54.629" r="1.959"/><circle class="cls-3" cx="165.615" cy="61.201" r="1.959"/><circle class="cls-3" cx="161.698" cy="71.766" r="1.959"/><circle class="cls-3" cx="151.3" cy="67.222" r="1.959"/><circle class="cls-3" cx="146.543" cy="56.428" r="1.959"/><circle class="cls-3" cx="156.425" cy="50.007" r="1.959"/><circle class="cls-3" cx="173.872" cy="30.429" r="1.959"/><circle class="cls-3" cx="186.891" cy="33.854" r="1.959"/><circle class="cls-3" cx="165.659" cy="47.01" r="1.959"/></g><path id="OUTLINE" class="cls-2" d="M186.814,83.531a2.931,2.931,0,0,0-2.427,1.288L176.716,82.8a2.935,2.935,0,0,0-2.921-2.694,2.9,2.9,0,0,0-1.295.305l-1.321-1.29a.975.975,0,0,0-.68-.277h-9.672a7.045,7.045,0,0,0-5.254-2.358c-.216,0-.428.013-.639.032l-2.579-3.437a.974.974,0,0,0-1.051-.35l-5.475,1.589a.974.974,0,0,0-.637.584l-1.236,3.2-5.107.991a.975.975,0,0,0-.483.248l-2.752,2.6-.923-.679a2.937,2.937,0,1,0-1.155,1.569l1.937,1.424.01.026.317.841h-8.557a2.933,2.933,0,1,0,0,1.949h9.293l.242.641a.974.974,0,0,0,.6.58l.923.31-3.186,2.4a2.906,2.906,0,0,0-1.62-.491,2.935,2.935,0,1,0,2.795,2.046l4.248-3.205,1.752.59,1.371,3.533a2.929,2.929,0,1,0,1.908-.71c-.031,0-.061,0-.091,0l-.783-2.018L156.3,94.667a1,1,0,0,0,.311.051h5.222l1.579,2.932a2.928,2.928,0,1,0,4.332,3.94l12.977,5.473c0,.058-.009.116-.009.176v.027l-12.912,4.686a2.917,2.917,0,0,0-3.267-.895l-5.684-6.924a2.945,2.945,0,1,0-1.506,1.237l5.566,6.78-13.529-3.386a2.934,2.934,0,1,0-.474,1.89l13.554,3.392-9.075,3.817a2.928,2.928,0,1,0,.766,1.969c0-.059-.006-.116-.009-.173l9.223-3.879a3.023,3.023,0,0,0,.293.284l-2,5.38-.048,0a2.939,2.939,0,1,0,1.875.68l2-5.381c.016,0,.032,0,.048,0a2.937,2.937,0,0,0,2.933-2.933l0-.028,12.913-4.685a2.936,2.936,0,1,0,.1-3.83L168.506,99.8c0-.058.009-.116.009-.176a2.91,2.91,0,0,0-3.385-2.894l-1.853-3.443a.974.974,0,0,0-.858-.513h-5.644l-16.1-5.422h0l-2.24-.755-1.29-3.419,2.35-2.22,5.359-1.04a.974.974,0,0,0,.723-.6l1.256-3.251,4.365-1.268,1.676,2.234a7.066,7.066,0,1,0,9.2,3.77H170.1l1.036,1.012a2.931,2.931,0,0,0,5.083,2.88l7.672,2.019a2.931,2.931,0,1,0,2.921-3.173ZM131.29,81.177a.973.973,0,0,1,1.172-1.553l.1.07a.98.98,0,0,1-1.165,1.562A1,1,0,0,1,131.29,81.177Zm-6.81,5.894a.975.975,0,0,1,0-1.949h.1a.979.979,0,0,1,0,1.949Zm9.6,7.155A.976.976,0,0,1,133,92.605a.982.982,0,0,1,1.192,1.542Zm11.487.492a.981.981,0,0,1,.872.537c.015.03.024.064.037.1a.975.975,0,0,1-.557,1.259.963.963,0,0,1-.352.066.974.974,0,0,1-.908-.622l-.041-.105a.971.971,0,0,1-.036-.248A.985.985,0,0,1,145.569,94.718Zm10.026,8.516A.974.974,0,1,1,157.1,102l.077.093a.974.974,0,0,1,.155.525.982.982,0,0,1-1.661.712Zm-9.366,6.748a.974.974,0,0,1,.474-1.89l.118.03a.983.983,0,0,1-.355,1.9,1.157,1.157,0,0,1-.132-.013Zm5.363,10.75a.964.964,0,0,1-.369.074.974.974,0,0,1-.378-1.872l.093-.039a.961.961,0,0,1,.285-.047.981.981,0,0,1,.472,1.842A.926.926,0,0,1,151.592,120.732Zm10.942,3.982a.974.974,0,1,1-1.827-.678l.037-.1a.982.982,0,0,1,1.861.439,1.012,1.012,0,0,1-.025.215Zm2.02-10.9a.984.984,0,1,1,.984.984A.985.985,0,0,1,164.554,113.811Zm19.473-7.47a.974.974,0,0,1-.046,1.813l-.135.049a.984.984,0,1,1-.2-1.948.969.969,0,0,1,.287.047Zm-18.445-7.706a.985.985,0,0,1,0,1.969.969.969,0,0,1-.286-.048.771.771,0,0,1-.106-.046.971.971,0,0,1-.466-.429l-.057-.107a.971.971,0,0,1-.069-.355A.986.986,0,0,1,165.582,98.635Zm-4.891-15.082a5.114,5.114,0,1,1-5.118-5.118,5.391,5.391,0,0,1,2,.409,5.148,5.148,0,0,1,2.3,1.949A5.083,5.083,0,0,1,160.691,83.553Zm12.856.428a.976.976,0,0,1-.433-.245l-.071-.07a1.048,1.048,0,1,1,.608.342Zm12.282,2.483a.986.986,0,0,1,.985-.985,1.013,1.013,0,0,1,.135.014l.113.03a.974.974,0,0,1-.5,1.884l-.108-.028A.984.984,0,0,1,185.829,86.464Z" transform="translate(0.077 -52.609)"/></g></g></svg>