<svg id="Layer_1" data-name="Layer 1" xmlns="http://www.w3.org/2000/svg" viewBox="0 0 200 93.376"><defs><style>.cls-1{fill:#b8c6c1;}.cls-2{fill:#3f6664;}.cls-3{fill:#fff;}</style></defs><title>MINI_FROG_report_green_BG</title><g id="MINI_FROG_report_green_BG"><rect id="BG" class="cls-1" width="200" height="93.376" rx="10.824"/><g id="TEXT"><g id="report"><path class="cls-2" d="M14.518,130.706v-8.553h1.3v1.3a3.553,3.553,0,0,1,.922-1.2,1.612,1.612,0,0,1,.93-.29,2.824,2.824,0,0,1,1.49.468l-.5,1.345a2.07,2.07,0,0,0-1.063-.315,1.384,1.384,0,0,0-.854.286,1.55,1.55,0,0,0-.54.794,5.646,5.646,0,0,0-.241,1.691v4.478Z" transform="translate(0 -53.312)"/><path class="cls-2" d="M37.429,127.952l1.5.185a3.658,3.658,0,0,1-1.313,2.038,3.948,3.948,0,0,1-2.448.725,3.913,3.913,0,0,1-2.976-1.156,4.515,4.515,0,0,1-1.1-3.242,4.728,4.728,0,0,1,1.112-3.351,3.764,3.764,0,0,1,2.883-1.192,3.659,3.659,0,0,1,2.8,1.168,4.64,4.64,0,0,1,1.087,3.286c0,.086,0,.215-.008.387H32.588a3.29,3.29,0,0,0,.8,2.159,2.375,2.375,0,0,0,1.788.749,2.221,2.221,0,0,0,1.361-.419A2.778,2.778,0,0,0,37.429,127.952Zm-4.76-2.344h4.776a2.9,2.9,0,0,0-.548-1.619,2.223,2.223,0,0,0-1.8-.838,2.3,2.3,0,0,0-1.679.669A2.644,2.644,0,0,0,32.669,125.608Z" transform="translate(0 -53.312)"/><path class="cls-2" d="M52.294,133.984V122.153h1.321v1.111a3.243,3.243,0,0,1,1.055-.978,2.892,2.892,0,0,1,1.425-.327,3.386,3.386,0,0,1,1.933.564,3.46,3.46,0,0,1,1.265,1.591,5.816,5.816,0,0,1,.427,2.251,5.722,5.722,0,0,1-.471,2.364,3.584,3.584,0,0,1-3.258,2.171,2.739,2.739,0,0,1-1.3-.306,2.943,2.943,0,0,1-.946-.774v4.164Zm1.313-7.506a3.717,3.717,0,0,0,.668,2.44,2.048,2.048,0,0,0,1.619.79,2.1,2.1,0,0,0,1.655-.818,3.878,3.878,0,0,0,.689-2.533,3.784,3.784,0,0,0-.673-2.449,2.025,2.025,0,0,0-1.607-.813,2.09,2.09,0,0,0-1.639.866A3.874,3.874,0,0,0,53.607,126.478Z" transform="translate(0 -53.312)"/><path class="cls-2" d="M72.475,126.429A4.407,4.407,0,0,1,73.8,122.91a3.977,3.977,0,0,1,2.69-.951,3.838,3.838,0,0,1,2.883,1.156,4.4,4.4,0,0,1,1.12,3.194,5.645,5.645,0,0,1-.5,2.6,3.5,3.5,0,0,1-1.441,1.47,4.2,4.2,0,0,1-2.066.524,3.844,3.844,0,0,1-2.9-1.152A4.6,4.6,0,0,1,72.475,126.429Zm1.49,0a3.643,3.643,0,0,0,.717,2.461,2.386,2.386,0,0,0,3.6,0,3.729,3.729,0,0,0,.717-2.5,3.536,3.536,0,0,0-.721-2.4,2.389,2.389,0,0,0-3.6,0A3.625,3.625,0,0,0,73.965,126.429Z" transform="translate(0 -53.312)"/><path class="cls-2" d="M93.719,130.706v-8.553h1.3v1.3a3.553,3.553,0,0,1,.923-1.2,1.61,1.61,0,0,1,.93-.29,2.826,2.826,0,0,1,1.49.468l-.5,1.345a2.067,2.067,0,0,0-1.063-.315,1.381,1.381,0,0,0-.853.286,1.544,1.544,0,0,0-.54.794,5.645,5.645,0,0,0-.242,1.691v4.478Z" transform="translate(0 -53.312)"/><path class="cls-2" d="M113.939,129.41l.21,1.28a5.371,5.371,0,0,1-1.1.129,2.473,2.473,0,0,1-1.224-.25,1.4,1.4,0,0,1-.612-.656,5.2,5.2,0,0,1-.177-1.712V123.28h-1.063v-1.127h1.063v-2.119l1.442-.869v2.988h1.457v1.127h-1.457v5a2.527,2.527,0,0,0,.076.8.594.594,0,0,0,.25.282.959.959,0,0,0,.495.105A4.8,4.8,0,0,0,113.939,129.41Z" transform="translate(0 -53.312)"/></g><g id="FROG"><path class="cls-2" d="M12.7,113.87V87.035H31.1v4.539H18.122v6.352h11.2v4.54h-11.2v11.4Z" transform="translate(0 -53.312)"/><path class="cls-2" d="M35.585,113.87V87.035h11.4a19.527,19.527,0,0,1,6.252.723,6.171,6.171,0,0,1,3.121,2.572,7.739,7.739,0,0,1,1.171,4.228,7.164,7.164,0,0,1-1.776,4.989,8.53,8.53,0,0,1-5.308,2.48,12.667,12.667,0,0,1,2.9,2.251,30.607,30.607,0,0,1,3.085,4.357l3.276,5.235h-6.48l-3.917-5.839a37.944,37.944,0,0,0-2.855-3.945,4.169,4.169,0,0,0-1.63-1.117,8.935,8.935,0,0,0-2.727-.3H41v11.2ZM41,98.384h4.008a20.677,20.677,0,0,0,4.87-.33A2.915,2.915,0,0,0,51.4,96.92a3.5,3.5,0,0,0,.549-2.014,3.221,3.221,0,0,0-.723-2.188,3.316,3.316,0,0,0-2.041-1.052q-.658-.091-3.954-.092H41Z" transform="translate(0 -53.312)"/><path class="cls-2" d="M61.542,100.617a17.068,17.068,0,0,1,1.226-6.883,12.64,12.64,0,0,1,2.5-3.679,10.446,10.446,0,0,1,3.469-2.416,14.743,14.743,0,0,1,5.784-1.062,12.6,12.6,0,0,1,9.491,3.68q3.561,3.678,3.561,10.232,0,6.5-3.533,10.168a12.5,12.5,0,0,1-9.446,3.671,12.631,12.631,0,0,1-9.518-3.652Q61.541,107.024,61.542,100.617Zm5.583-.183q0,4.559,2.105,6.911a7.236,7.236,0,0,0,10.663.017q2.078-2.332,2.077-7,0-4.612-2.022-6.883a7.494,7.494,0,0,0-10.773.028Q67.125,95.8,67.125,100.434Z" transform="translate(0 -53.312)"/><path class="cls-2" d="M104.284,104V99.482h11.679v10.69a14.683,14.683,0,0,1-4.933,2.9,17.938,17.938,0,0,1-6.544,1.255,14.687,14.687,0,0,1-7.341-1.767,11.226,11.226,0,0,1-4.7-5.052,16.317,16.317,0,0,1-1.574-7.148,15.441,15.441,0,0,1,1.757-7.45,11.837,11.837,0,0,1,5.144-5,13.887,13.887,0,0,1,6.425-1.336q5,0,7.807,2.1a9.468,9.468,0,0,1,3.615,5.794l-5.382,1.006a5.684,5.684,0,0,0-2.132-3.121,6.452,6.452,0,0,0-3.908-1.144,7.342,7.342,0,0,0-5.647,2.252q-2.1,2.252-2.1,6.681,0,4.777,2.123,7.167a7.091,7.091,0,0,0,5.565,2.389,9.339,9.339,0,0,0,3.414-.668,11.73,11.73,0,0,0,2.938-1.621V104Z" transform="translate(0 -53.312)"/></g><g id="MINI"><path class="cls-2" d="M13.192,80.683V66.016h2.922L19.585,76.4q.481,1.45.7,2.171.249-.8.78-2.351l3.512-10.2h2.611V80.683H25.318V68.407L21.056,80.683H19.305L15.063,68.2V80.683Z" transform="translate(0 -53.312)"/><path class="cls-2" d="M51.448,80.683V66.016h1.941V80.683Z" transform="translate(0 -53.312)"/><path class="cls-2" d="M77.589,80.683V66.016H79.58l7.7,11.515V66.016h1.861V80.683H87.153l-7.7-11.526V80.683Z" transform="translate(0 -53.312)"/><path class="cls-2" d="M113.534,80.683V66.016h1.941V80.683Z" transform="translate(0 -53.312)"/></g></g><g id="FROG-2" data-name="FROG"><g id="BG_CIRCLES"><circle class="cls-3" cx="156.232" cy="30.046" r="6.165"/><circle class="cls-3" cx="124.77" cy="32.62" r="1.982"/><circle class="cls-3" cx="133.892" cy="40.059" r="1.982"/><circle class="cls-3" cx="146.109" cy="42.339" r="1.982"/><circle class="cls-3" cx="132.263" cy="26.864" r="1.982"/><circle class="cls-3" cx="184.641" cy="54.013" r="1.982"/><circle class="cls-3" cx="166.315" cy="60.663" r="1.982"/><circle class="cls-3" cx="162.351" cy="71.352" r="1.982"/><circle class="cls-3" cx="151.83" cy="66.755" r="1.982"/><circle class="cls-3" cx="147.017" cy="55.833" r="1.982"/><circle class="cls-3" cx="157.017" cy="49.335" r="1.982"/><circle class="cls-3" cx="174.671" cy="29.525" r="1.982"/><circle class="cls-3" cx="187.843" cy="32.991" r="1.982"/><circle class="cls-3" cx="166.36" cy="46.303" r="1.982"/></g><path id="OUTLINE" class="cls-2" d="M187.844,83.335a2.969,2.969,0,0,0-2.456,1.3L177.626,82.6a2.959,2.959,0,0,0-4.266-2.417l-1.336-1.305a.985.985,0,0,0-.689-.281h-9.786a7.128,7.128,0,0,0-5.317-2.386c-.218,0-.433.014-.646.033l-2.61-3.478a.986.986,0,0,0-1.063-.355l-5.54,1.608a.986.986,0,0,0-.645.592l-1.25,3.236-5.168,1a.978.978,0,0,0-.489.251l-2.784,2.629-.935-.687a2.931,2.931,0,0,0,.129-.863,2.972,2.972,0,1,0-1.3,2.451l1.96,1.441.01.027.321.851h-8.659a2.967,2.967,0,1,0,0,1.972h9.4l.245.648a.985.985,0,0,0,.608.587l.933.314L135.532,90.9a2.968,2.968,0,1,0,1.188,1.573l4.3-3.243,1.773.6,1.387,3.575a2.963,2.963,0,1,0,1.931-.719c-.031,0-.062,0-.093,0l-.792-2.042L156.973,94.6a.958.958,0,0,0,.314.052h5.284l1.6,2.967a2.963,2.963,0,1,0,4.384,3.987l13.13,5.538c0,.059-.009.118-.009.178l0,.027-13.066,4.742a2.95,2.95,0,0,0-3.305-.906l-5.752-7.006a2.984,2.984,0,1,0-1.523,1.251l5.631,6.861-13.689-3.426a2.972,2.972,0,1,0-.48,1.912l13.715,3.433-9.182,3.862a2.963,2.963,0,1,0,.774,1.992c0-.059,0-.117-.009-.175l9.333-3.925a3.107,3.107,0,0,0,.3.288L162.4,121.7l-.048,0a2.973,2.973,0,1,0,1.9.687l2.019-5.444.048,0a2.971,2.971,0,0,0,2.968-2.967v-.028l13.065-4.741a2.971,2.971,0,1,0,.1-3.875l-13.131-5.538c0-.059.009-.118.009-.178a2.971,2.971,0,0,0-2.968-2.968,3.008,3.008,0,0,0-.457.039L164.028,93.2a.985.985,0,0,0-.868-.519h-5.711L141.161,87.2h0l-2.266-.764-1.306-3.46,2.379-2.246,5.422-1.052a.988.988,0,0,0,.732-.613l1.27-3.289,4.417-1.283,1.7,2.26a7.149,7.149,0,1,0,9.309,3.815h8.119l1.049,1.024a2.966,2.966,0,0,0,5.144,2.914l7.762,2.043a2.967,2.967,0,1,0,2.956-3.211Zm-56.183-2.382a.984.984,0,0,1,1.186-1.571l.1.071a.994.994,0,0,1-.681,1.719.98.98,0,0,1-.5-.139A.909.909,0,0,1,131.661,80.953Zm-6.891,5.965a.986.986,0,0,1,0-1.972h.1a.991.991,0,0,1,0,1.972Zm9.716,7.24a.985.985,0,0,1-1.2-1.561,1.111,1.111,0,0,1,.1-.079.985.985,0,0,1,.507-.144,1,1,0,0,1,.7,1.7Zm11.624.5a.994.994,0,0,1,.882.543c.016.031.024.066.038.1a.986.986,0,0,1-.564,1.273.968.968,0,0,1-.356.067.985.985,0,0,1-.919-.629l-.042-.106a.986.986,0,0,1,.961-1.247Zm10.145,8.617a.986.986,0,1,1,1.524-1.25l.078.094a.993.993,0,0,1-1.524,1.251Zm-9.477,6.829a.986.986,0,1,1,.479-1.913l.119.03a.995.995,0,0,1-.359,1.923.983.983,0,0,1-.133-.014Zm5.426,10.877a.967.967,0,0,1-.373.075.986.986,0,0,1-.383-1.895l.094-.039a.987.987,0,0,1,.288-.048.992.992,0,0,1,.479,1.864A.8.8,0,0,1,152.2,120.978Zm11.072,4.029a.986.986,0,1,1-1.849-.685l.038-.1a.993.993,0,0,1,1.883.444.978.978,0,0,1-.026.218Zm2.044-11.032a1,1,0,1,1,1,1A1,1,0,0,1,165.32,113.975Zm19.7-7.559a.986.986,0,0,1-.047,1.835l-.136.05a1.02,1.02,0,0,1-.2.02,1,1,0,1,1,.29-1.944Zm-18.664-7.8a1,1,0,1,1-.29,1.944,1.121,1.121,0,0,1-.107-.047.987.987,0,0,1-.471-.434l-.058-.108a.992.992,0,0,1,.926-1.355Zm-4.949-15.262a5.176,5.176,0,1,1-5.179-5.178,5.45,5.45,0,0,1,2.027.414,5.2,5.2,0,0,1,2.327,1.972A5.135,5.135,0,0,1,161.411,83.357Zm13.009.434a.993.993,0,0,1-.438-.248l-.072-.07a.992.992,0,1,1,.761.36,1.03,1.03,0,0,1-.147-.014ZM186.848,86.3a1,1,0,0,1,1-1,1.025,1.025,0,0,1,.137.014l.114.03a.986.986,0,0,1-.5,1.907l-.109-.029A1,1,0,0,1,186.848,86.3Z" transform="translate(0 -53.312)"/></g></g></svg>