<svg id="Layer_1" data-name="Layer 1" xmlns="http://www.w3.org/2000/svg" viewBox="0 0 200 93.376"><defs><style>.cls-1{fill:#b8c6c1;}.cls-2{fill:#3f6664;}.cls-3{fill:#fff;}</style></defs><title>MINI_FROG_analysis_green_BG_outline</title><g id="MINI_FROG_analysis_green_BG_outline"><rect id="BG" class="cls-1" width="200" height="93.376" rx="10.824"/><g id="TEXT"><g id="analysis"><path class="cls-2" d="M19.464,130.3a5.584,5.584,0,0,1-1.606,1,4.629,4.629,0,0,1-1.656.292,3.215,3.215,0,0,1-2.244-.714,2.35,2.35,0,0,1-.785-1.822,2.417,2.417,0,0,1,.3-1.189,2.446,2.446,0,0,1,.776-.864,3.633,3.633,0,0,1,1.08-.492,10.673,10.673,0,0,1,1.335-.225,13.7,13.7,0,0,0,2.678-.518c.006-.205.008-.336.008-.392a1.657,1.657,0,0,0-.425-1.293,2.515,2.515,0,0,0-1.71-.509,2.65,2.65,0,0,0-1.565.372,2.272,2.272,0,0,0-.747,1.314l-1.468-.2a3.657,3.657,0,0,1,.659-1.523,2.9,2.9,0,0,1,1.327-.892,5.9,5.9,0,0,1,2.011-.313,5.315,5.315,0,0,1,1.843.267,2.432,2.432,0,0,1,1.043.671,2.366,2.366,0,0,1,.468,1.023,8.463,8.463,0,0,1,.075,1.385v2a21.233,21.233,0,0,0,.1,2.649,3.342,3.342,0,0,0,.379,1.064H19.765A3.194,3.194,0,0,1,19.464,130.3Zm-.125-3.354a11.009,11.009,0,0,1-2.453.567,5.635,5.635,0,0,0-1.31.3,1.3,1.3,0,0,0-.592.488,1.326,1.326,0,0,0,.246,1.714,1.957,1.957,0,0,0,1.331.4,3.1,3.1,0,0,0,1.543-.379A2.333,2.333,0,0,0,19.1,129a3.631,3.631,0,0,0,.242-1.5Z" transform="translate(0 -53.312)"/><path class="cls-2" d="M29.166,131.4v-8.861h1.351v1.26a3.186,3.186,0,0,1,2.82-1.46,3.717,3.717,0,0,1,1.473.287,2.317,2.317,0,0,1,1,.756,2.885,2.885,0,0,1,.468,1.11,8.672,8.672,0,0,1,.083,1.46V131.4h-1.5v-5.39a4.038,4.038,0,0,0-.175-1.372,1.454,1.454,0,0,0-.621-.727,1.987,1.987,0,0,0-1.048-.27,2.435,2.435,0,0,0-1.656.609,3.006,3.006,0,0,0-.7,2.311V131.4Z" transform="translate(0 -53.312)"/><path class="cls-2" d="M50.432,130.3a5.61,5.61,0,0,1-1.606,1,4.639,4.639,0,0,1-1.657.292,3.215,3.215,0,0,1-2.244-.714,2.349,2.349,0,0,1-.784-1.822,2.416,2.416,0,0,1,.3-1.189,2.446,2.446,0,0,1,.776-.864,3.645,3.645,0,0,1,1.08-.492,10.673,10.673,0,0,1,1.335-.225,13.692,13.692,0,0,0,2.679-.518c0-.205.008-.336.008-.392a1.657,1.657,0,0,0-.426-1.293,2.513,2.513,0,0,0-1.71-.509,2.647,2.647,0,0,0-1.564.372,2.261,2.261,0,0,0-.747,1.314l-1.469-.2a3.657,3.657,0,0,1,.66-1.523,2.891,2.891,0,0,1,1.326-.892,5.91,5.91,0,0,1,2.011-.313,5.325,5.325,0,0,1,1.844.267,2.438,2.438,0,0,1,1.043.671,2.376,2.376,0,0,1,.467,1.023,8.463,8.463,0,0,1,.075,1.385v2a21.233,21.233,0,0,0,.1,2.649,3.32,3.32,0,0,0,.38,1.064H50.732A3.172,3.172,0,0,1,50.432,130.3Zm-.125-3.354a11.023,11.023,0,0,1-2.453.567,5.622,5.622,0,0,0-1.31.3,1.306,1.306,0,0,0-.593.488,1.329,1.329,0,0,0,.246,1.714,1.959,1.959,0,0,0,1.331.4,3.1,3.1,0,0,0,1.544-.379,2.344,2.344,0,0,0,.993-1.04,3.631,3.631,0,0,0,.242-1.5Z" transform="translate(0 -53.312)"/><path class="cls-2" d="M60.1,131.4V119.165h1.5V131.4Z" transform="translate(0 -53.312)"/><path class="cls-2" d="M69.843,134.808l-.166-1.41a3.344,3.344,0,0,0,.859.134,1.651,1.651,0,0,0,.8-.167,1.365,1.365,0,0,0,.492-.467,7.273,7.273,0,0,0,.459-1.118c.028-.084.072-.206.134-.367l-3.363-8.878h1.619l1.844,5.131q.358.977.642,2.053a20.091,20.091,0,0,1,.618-2.019l1.893-5.165h1.5l-3.37,9.011a17.837,17.837,0,0,1-.843,2.011,2.976,2.976,0,0,1-.918,1.089,2.174,2.174,0,0,1-1.235.346A2.994,2.994,0,0,1,69.843,134.808Z" transform="translate(0 -53.312)"/><path class="cls-2" d="M83.833,128.751l1.486-.234a2.073,2.073,0,0,0,.7,1.369,2.429,2.429,0,0,0,1.6.475,2.346,2.346,0,0,0,1.535-.421,1.258,1.258,0,0,0,.5-.989.914.914,0,0,0-.442-.8,6.556,6.556,0,0,0-1.536-.509,14.039,14.039,0,0,1-2.29-.721,2.185,2.185,0,0,1-1.3-2.032,2.287,2.287,0,0,1,.271-1.1,2.454,2.454,0,0,1,.738-.838,3.093,3.093,0,0,1,.956-.437,4.523,4.523,0,0,1,1.3-.18,5.13,5.13,0,0,1,1.831.3,2.487,2.487,0,0,1,1.164.814,3.168,3.168,0,0,1,.518,1.372l-1.469.2a1.6,1.6,0,0,0-.58-1.068,2.121,2.121,0,0,0-1.356-.384,2.453,2.453,0,0,0-1.476.342,1,1,0,0,0-.443.8.832.832,0,0,0,.184.526,1.324,1.324,0,0,0,.576.4q.225.084,1.326.384a18.268,18.268,0,0,1,2.224.7,2.261,2.261,0,0,1,.989.788,2.2,2.2,0,0,1,.358,1.285,2.524,2.524,0,0,1-.438,1.414,2.824,2.824,0,0,1-1.264,1.026,4.58,4.58,0,0,1-1.869.363,4.164,4.164,0,0,1-2.632-.717A3.338,3.338,0,0,1,83.833,128.751Z" transform="translate(0 -53.312)"/><path class="cls-2" d="M98.966,120.892v-1.727h1.5v1.727Zm0,10.5v-8.861h1.5V131.4Z" transform="translate(0 -53.312)"/><path class="cls-2" d="M108.134,128.751l1.486-.234a2.073,2.073,0,0,0,.7,1.369,2.429,2.429,0,0,0,1.6.475,2.346,2.346,0,0,0,1.535-.421,1.258,1.258,0,0,0,.5-.989.914.914,0,0,0-.442-.8,6.556,6.556,0,0,0-1.536-.509,14.039,14.039,0,0,1-2.29-.721,2.185,2.185,0,0,1-1.3-2.032,2.287,2.287,0,0,1,.271-1.1,2.454,2.454,0,0,1,.738-.838,3.093,3.093,0,0,1,.956-.437,4.523,4.523,0,0,1,1.3-.18,5.13,5.13,0,0,1,1.831.3,2.487,2.487,0,0,1,1.164.814,3.168,3.168,0,0,1,.518,1.372l-1.469.2a1.6,1.6,0,0,0-.58-1.068,2.121,2.121,0,0,0-1.356-.384,2.453,2.453,0,0,0-1.476.342,1,1,0,0,0-.443.8.832.832,0,0,0,.184.526,1.324,1.324,0,0,0,.576.4q.225.084,1.326.384a18.268,18.268,0,0,1,2.224.7,2.261,2.261,0,0,1,.989.788,2.2,2.2,0,0,1,.358,1.285,2.524,2.524,0,0,1-.438,1.414,2.824,2.824,0,0,1-1.264,1.026,4.58,4.58,0,0,1-1.869.363,4.164,4.164,0,0,1-2.632-.717A3.338,3.338,0,0,1,108.134,128.751Z" transform="translate(0 -53.312)"/></g><g id="FROG"><path class="cls-2" d="M12.7,113.87V87.035H31.1v4.539H18.122v6.352h11.2v4.54h-11.2v11.4Z" transform="translate(0 -53.312)"/><path class="cls-2" d="M35.585,113.87V87.035h11.4a19.516,19.516,0,0,1,6.251.723,6.163,6.163,0,0,1,3.121,2.572,7.731,7.731,0,0,1,1.172,4.228,7.164,7.164,0,0,1-1.776,4.989,8.533,8.533,0,0,1-5.308,2.48,12.689,12.689,0,0,1,2.9,2.251,30.607,30.607,0,0,1,3.085,4.357l3.276,5.235h-6.48l-3.917-5.839a37.741,37.741,0,0,0-2.856-3.945,4.159,4.159,0,0,0-1.629-1.117,8.935,8.935,0,0,0-2.727-.3H41v11.2ZM41,98.384h4.009a20.66,20.66,0,0,0,4.869-.33A2.913,2.913,0,0,0,51.4,96.92a3.5,3.5,0,0,0,.549-2.014,3.221,3.221,0,0,0-.723-2.188,3.318,3.318,0,0,0-2.041-1.052q-.658-.091-3.954-.092H41Z" transform="translate(0 -53.312)"/><path class="cls-2" d="M61.542,100.617a17.068,17.068,0,0,1,1.226-6.883,12.64,12.64,0,0,1,2.5-3.679,10.446,10.446,0,0,1,3.469-2.416,14.743,14.743,0,0,1,5.784-1.062,12.6,12.6,0,0,1,9.491,3.68q3.561,3.678,3.561,10.232,0,6.5-3.533,10.168a12.5,12.5,0,0,1-9.446,3.671,12.631,12.631,0,0,1-9.518-3.652Q61.541,107.024,61.542,100.617Zm5.583-.183q0,4.559,2.105,6.911a7.236,7.236,0,0,0,10.663.017q2.078-2.332,2.077-7,0-4.612-2.022-6.883a7.494,7.494,0,0,0-10.773.028Q67.125,95.8,67.125,100.434Z" transform="translate(0 -53.312)"/><path class="cls-2" d="M104.284,104V99.482h11.679v10.69a14.683,14.683,0,0,1-4.933,2.9,17.938,17.938,0,0,1-6.544,1.255,14.687,14.687,0,0,1-7.341-1.767,11.226,11.226,0,0,1-4.7-5.052,16.317,16.317,0,0,1-1.574-7.148,15.441,15.441,0,0,1,1.757-7.45,11.837,11.837,0,0,1,5.144-5,13.887,13.887,0,0,1,6.425-1.336q5,0,7.807,2.1a9.468,9.468,0,0,1,3.615,5.794l-5.382,1.006a5.684,5.684,0,0,0-2.132-3.121,6.452,6.452,0,0,0-3.908-1.144,7.342,7.342,0,0,0-5.647,2.252q-2.1,2.252-2.1,6.681,0,4.777,2.123,7.167a7.091,7.091,0,0,0,5.565,2.389,9.339,9.339,0,0,0,3.414-.668,11.73,11.73,0,0,0,2.938-1.621V104Z" transform="translate(0 -53.312)"/></g><g id="MINI"><path class="cls-2" d="M13.192,80.683V66.016h2.921L19.585,76.4q.48,1.45.7,2.171.249-.8.78-2.351l3.512-10.2h2.611V80.683H25.318V68.407L21.056,80.683H19.305L15.063,68.2V80.683Z" transform="translate(0 -53.312)"/><path class="cls-2" d="M51.448,80.683V66.016h1.941V80.683Z" transform="translate(0 -53.312)"/><path class="cls-2" d="M77.589,80.683V66.016H79.58l7.7,11.515V66.016h1.861V80.683H87.153l-7.7-11.526V80.683Z" transform="translate(0 -53.312)"/><path class="cls-2" d="M113.534,80.683V66.016h1.941V80.683Z" transform="translate(0 -53.312)"/></g></g><g id="FROG-2" data-name="FROG"><g id="BG_CIRCLES"><circle class="cls-3" cx="156.232" cy="30.046" r="6.165"/><circle class="cls-3" cx="124.77" cy="32.62" r="1.982"/><circle class="cls-3" cx="133.893" cy="40.059" r="1.982"/><circle class="cls-3" cx="146.11" cy="42.339" r="1.982"/><circle class="cls-3" cx="132.264" cy="26.864" r="1.982"/><circle class="cls-3" cx="184.641" cy="54.013" r="1.982"/><circle class="cls-3" cx="166.316" cy="60.663" r="1.982"/><circle class="cls-3" cx="162.352" cy="71.352" r="1.982"/><circle class="cls-3" cx="151.831" cy="66.755" r="1.982"/><circle class="cls-3" cx="147.018" cy="55.833" r="1.982"/><circle class="cls-3" cx="157.017" cy="49.335" r="1.982"/><circle class="cls-3" cx="174.671" cy="29.525" r="1.982"/><circle class="cls-3" cx="187.844" cy="32.991" r="1.982"/><circle class="cls-3" cx="166.361" cy="46.303" r="1.982"/></g><path id="OUTLINE" class="cls-2" d="M187.844,83.335a2.969,2.969,0,0,0-2.456,1.3L177.627,82.6a2.96,2.96,0,0,0-4.267-2.417l-1.336-1.305a.985.985,0,0,0-.689-.281h-9.786a7.128,7.128,0,0,0-5.317-2.386c-.218,0-.433.014-.646.033l-2.61-3.478a.986.986,0,0,0-1.063-.355l-5.54,1.608a.989.989,0,0,0-.645.592l-1.25,3.236-5.167,1a.97.97,0,0,0-.489.251l-2.785,2.629-.935-.687a2.931,2.931,0,0,0,.129-.863,2.972,2.972,0,1,0-1.3,2.451l1.96,1.441.01.027.321.851h-8.659a2.967,2.967,0,1,0,0,1.972h9.4l.245.648a.985.985,0,0,0,.608.587l.933.314L135.532,90.9a2.968,2.968,0,1,0,1.188,1.573l4.3-3.243,1.773.6,1.387,3.575a2.963,2.963,0,1,0,1.931-.719c-.031,0-.062,0-.092,0l-.793-2.042L156.973,94.6a.958.958,0,0,0,.314.052h5.284l1.6,2.967a2.963,2.963,0,1,0,4.384,3.987l13.131,5.538c0,.059-.009.118-.009.178v.027l-13.066,4.742a2.95,2.95,0,0,0-3.305-.906l-5.752-7.006a2.984,2.984,0,1,0-1.523,1.251l5.632,6.861-13.69-3.426a2.97,2.97,0,1,0-.479,1.912l13.715,3.433-9.183,3.862a2.963,2.963,0,1,0,.774,1.992c0-.059,0-.117-.008-.175l9.332-3.925a3.107,3.107,0,0,0,.3.288L162.4,121.7l-.048,0a2.971,2.971,0,1,0,1.9.687l2.018-5.444.049,0a2.97,2.97,0,0,0,2.967-2.967v-.028l13.066-4.741a2.971,2.971,0,1,0,.1-3.875l-13.131-5.538c0-.059.009-.118.009-.178a2.971,2.971,0,0,0-2.967-2.968,3.011,3.011,0,0,0-.458.039L164.028,93.2a.985.985,0,0,0-.868-.519h-5.711L141.161,87.2h0l-2.266-.764-1.306-3.46,2.379-2.246,5.422-1.052a.988.988,0,0,0,.732-.613l1.27-3.289,4.418-1.283,1.7,2.26a7.151,7.151,0,1,0,9.309,3.815h8.12l1.048,1.024a2.966,2.966,0,0,0,5.144,2.914l7.762,2.043a2.967,2.967,0,1,0,2.956-3.211Zm-56.183-2.382a.984.984,0,0,1,1.186-1.571l.1.071a.991.991,0,0,1-1.179,1.58A1,1,0,0,1,131.661,80.953Zm-6.891,5.965a.986.986,0,0,1,0-1.972h.1a.991.991,0,0,1,0,1.972Zm9.716,7.24a.985.985,0,0,1-1.2-1.561,1.111,1.111,0,0,1,.1-.079.985.985,0,0,1,.507-.144,1,1,0,0,1,.7,1.7Zm11.624.5a.994.994,0,0,1,.882.543c.016.031.025.066.038.1a.986.986,0,0,1-.564,1.273.968.968,0,0,1-.356.067.985.985,0,0,1-.919-.629l-.041-.106a.951.951,0,0,1-.036-.251A1,1,0,0,1,146.11,94.655Zm10.145,8.617a.986.986,0,1,1,1.524-1.25l.078.094a.993.993,0,0,1-1.524,1.251Zm-9.477,6.829a.986.986,0,1,1,.479-1.913l.12.03a1,1,0,0,1-.359,1.923.981.981,0,0,1-.134-.014Zm5.426,10.877a.963.963,0,0,1-.373.075.986.986,0,0,1-.383-1.895l.094-.039a.987.987,0,0,1,.288-.048.992.992,0,0,1,.479,1.864A.8.8,0,0,1,152.2,120.978Zm11.072,4.029a.986.986,0,1,1-1.849-.685l.038-.1a.993.993,0,0,1,1.883.444.978.978,0,0,1-.026.218Zm2.044-11.032a1,1,0,1,1,1,1A1,1,0,0,1,165.32,113.975Zm19.7-7.559a.985.985,0,0,1-.047,1.835l-.136.05a1.012,1.012,0,0,1-.2.02,1,1,0,1,1,.29-1.944Zm-18.663-7.8a1,1,0,1,1-.29,1.944.936.936,0,0,1-.107-.047.979.979,0,0,1-.471-.434l-.059-.108a.992.992,0,0,1,.927-1.355Zm-4.95-15.262a5.176,5.176,0,1,1-5.179-5.178,5.078,5.078,0,0,1,.869.079,5.15,5.15,0,0,1,1.159.335,5.206,5.206,0,0,1,2.326,1.972A5.135,5.135,0,0,1,161.411,83.357Zm13.009.434a.993.993,0,0,1-.438-.248l-.072-.07a.992.992,0,1,1,.761.36,1,1,0,0,1-.146-.014ZM186.848,86.3a1,1,0,0,1,1-1,1.025,1.025,0,0,1,.137.014l.114.03a.986.986,0,1,1-.5,1.907l-.109-.029A1,1,0,0,1,186.848,86.3Z" transform="translate(0 -53.312)"/></g></g></svg>