<?xml version="1.0" encoding="UTF-8" standalone="no"?>
<!-- Created with Inkscape (http://www.inkscape.org/) -->

<svg
   width="96.851715mm"
   height="77.581291mm"
   viewBox="0 0 96.851715 77.581291"
   version="1.1"
   id="svg175"
   inkscape:version="1.1.1 (1:1.1+202109281943+c3084ef5ed)"
   sodipodi:docname="frog_icon_mirrored.svg"
   xmlns:inkscape="http://www.inkscape.org/namespaces/inkscape"
   xmlns:sodipodi="http://sodipodi.sourceforge.net/DTD/sodipodi-0.dtd"
   xmlns="http://www.w3.org/2000/svg"
   xmlns:svg="http://www.w3.org/2000/svg">
  <sodipodi:namedview
     id="namedview177"
     pagecolor="#ffffff"
     bordercolor="#666666"
     borderopacity="1.0"
     inkscape:pageshadow="2"
     inkscape:pageopacity="0.0"
     inkscape:pagecheckerboard="0"
     inkscape:document-units="mm"
     showgrid="false"
     inkscape:zoom="0.75187991"
     inkscape:cx="83.789976"
     inkscape:cy="305.23491"
     inkscape:window-width="1551"
     inkscape:window-height="752"
     inkscape:window-x="352"
     inkscape:window-y="337"
     inkscape:window-maximized="0"
     inkscape:current-layer="layer1"
     fit-margin-top="0"
     fit-margin-left="0"
     fit-margin-right="0"
     fit-margin-bottom="0" />
  <defs
     id="defs172" />
  <g
     inkscape:label="Layer 1"
     inkscape:groupmode="layer"
     id="layer1"
     transform="translate(-41.119456,-67.736212)">
    <g
       id="FROG-2"
       data-name="FROG"
       style="fill:#000000"
       transform="matrix(-1.4201263,0,0,1.4201263,310.68782,39.215609)">
      <g
         id="BG_CIRCLES"
         style="fill:#000000">
        <circle
           class="cls-3"
           cx="155.64999"
           cy="30.943001"
           r="6.092"
           id="circle37"
           style="fill:#000000" />
        <circle
           class="cls-3"
           cx="124.557"
           cy="33.487"
           r="1.959"
           id="circle39"
           style="fill:#000000" />
        <circle
           class="cls-3"
           cx="133.57201"
           cy="40.839001"
           r="1.959"
           id="circle41"
           style="fill:#000000" />
        <circle
           class="cls-3"
           cx="145.646"
           cy="43.092999"
           r="1.959"
           id="circle43"
           style="fill:#000000" />
        <circle
           class="cls-3"
           cx="131.96201"
           cy="27.799"
           r="1.959"
           id="circle45"
           style="fill:#000000" />
        <circle
           class="cls-3"
           cx="183.726"
           cy="54.629002"
           r="1.959"
           id="circle47"
           style="fill:#000000" />
        <circle
           class="cls-3"
           cx="165.61501"
           cy="61.201"
           r="1.959"
           id="circle49"
           style="fill:#000000" />
        <circle
           class="cls-3"
           cx="161.698"
           cy="71.765999"
           r="1.959"
           id="circle51"
           style="fill:#000000" />
        <circle
           class="cls-3"
           cx="151.3"
           cy="67.222"
           r="1.959"
           id="circle53"
           style="fill:#000000" />
        <circle
           class="cls-3"
           cx="146.543"
           cy="56.428001"
           r="1.959"
           id="circle55"
           style="fill:#000000" />
        <circle
           class="cls-3"
           cx="156.425"
           cy="50.007"
           r="1.959"
           id="circle57"
           style="fill:#000000" />
        <circle
           class="cls-3"
           cx="173.87199"
           cy="30.429001"
           r="1.959"
           id="circle59"
           style="fill:#000000" />
        <circle
           class="cls-3"
           cx="186.89101"
           cy="33.854"
           r="1.959"
           id="circle61"
           style="fill:#000000" />
        <circle
           class="cls-3"
           cx="165.659"
           cy="47.009998"
           r="1.959"
           id="circle63"
           style="fill:#000000" />
      </g>
      <path
         id="OUTLINE"
         class="cls-2"
         d="m 186.814,83.531 a 2.931,2.931 0 0 0 -2.427,1.288 L 176.716,82.8 a 2.935,2.935 0 0 0 -2.921,-2.694 2.9,2.9 0 0 0 -1.295,0.305 l -1.321,-1.29 a 0.975,0.975 0 0 0 -0.68,-0.277 h -9.672 a 7.045,7.045 0 0 0 -5.254,-2.358 c -0.216,0 -0.428,0.013 -0.639,0.032 l -2.579,-3.437 a 0.974,0.974 0 0 0 -1.051,-0.35 l -5.475,1.589 a 0.974,0.974 0 0 0 -0.637,0.584 l -1.236,3.2 -5.107,0.991 a 0.975,0.975 0 0 0 -0.483,0.248 l -2.752,2.6 -0.923,-0.679 a 2.937,2.937 0 1 0 -1.155,1.569 l 1.937,1.424 0.01,0.026 0.317,0.841 h -8.557 a 2.933,2.933 0 1 0 0,1.949 h 9.293 l 0.242,0.641 a 0.974,0.974 0 0 0 0.6,0.58 l 0.923,0.31 -3.186,2.4 a 2.906,2.906 0 0 0 -1.62,-0.491 2.935,2.935 0 1 0 2.795,2.046 l 4.248,-3.205 1.752,0.59 1.371,3.533 a 2.929,2.929 0 1 0 1.908,-0.71 c -0.031,0 -0.061,0 -0.091,0 l -0.783,-2.018 11.605,3.918 a 1,1 0 0 0 0.311,0.051 h 5.222 l 1.579,2.932 a 2.928,2.928 0 1 0 4.332,3.94 l 12.977,5.473 c 0,0.058 -0.009,0.116 -0.009,0.176 v 0.027 l -12.912,4.686 a 2.917,2.917 0 0 0 -3.267,-0.895 l -5.684,-6.924 a 2.945,2.945 0 1 0 -1.506,1.237 l 5.566,6.78 -13.529,-3.386 a 2.934,2.934 0 1 0 -0.474,1.89 l 13.554,3.392 -9.075,3.817 a 2.928,2.928 0 1 0 0.766,1.969 c 0,-0.059 -0.006,-0.116 -0.009,-0.173 l 9.223,-3.879 a 3.023,3.023 0 0 0 0.293,0.284 l -2,5.38 h -0.048 a 2.939,2.939 0 1 0 1.875,0.68 l 2,-5.381 c 0.016,0 0.032,0 0.048,0 a 2.937,2.937 0 0 0 2.933,-2.933 v -0.028 l 12.913,-4.685 a 2.936,2.936 0 1 0 0.1,-3.83 L 168.506,99.8 c 0,-0.058 0.009,-0.116 0.009,-0.176 A 2.91,2.91 0 0 0 165.13,96.73 l -1.853,-3.443 a 0.974,0.974 0 0 0 -0.858,-0.513 h -5.644 l -16.1,-5.422 v 0 l -2.24,-0.755 -1.29,-3.419 2.35,-2.22 5.359,-1.04 a 0.974,0.974 0 0 0 0.723,-0.6 l 1.256,-3.251 4.365,-1.268 1.676,2.234 a 7.066,7.066 0 1 0 9.2,3.77 h 8.026 l 1.036,1.012 a 2.931,2.931 0 0 0 5.083,2.88 l 7.672,2.019 a 2.931,2.931 0 1 0 2.921,-3.173 z M 131.29,81.177 a 0.973,0.973 0 0 1 1.172,-1.553 l 0.1,0.07 a 0.98,0.98 0 0 1 -1.165,1.562 1,1 0 0 1 -0.107,-0.079 z m -6.81,5.894 a 0.975,0.975 0 0 1 0,-1.949 h 0.1 a 0.979,0.979 0 0 1 0,1.949 z m 9.6,7.155 a 0.976,0.976 0 0 1 -1.08,-1.621 0.982,0.982 0 0 1 1.192,1.542 z m 11.487,0.492 a 0.981,0.981 0 0 1 0.872,0.537 c 0.015,0.03 0.024,0.064 0.037,0.1 a 0.975,0.975 0 0 1 -0.557,1.259 0.963,0.963 0 0 1 -0.352,0.066 0.974,0.974 0 0 1 -0.908,-0.622 l -0.041,-0.105 a 0.971,0.971 0 0 1 -0.036,-0.248 0.985,0.985 0 0 1 0.987,-0.987 z m 10.026,8.516 A 0.974,0.974 0 1 1 157.1,102 l 0.077,0.093 a 0.974,0.974 0 0 1 0.155,0.525 0.982,0.982 0 0 1 -1.661,0.712 z m -9.366,6.748 a 0.97426588,0.97426588 0 0 1 0.474,-1.89 l 0.118,0.03 a 0.983,0.983 0 0 1 -0.355,1.9 1.157,1.157 0 0 1 -0.132,-0.013 z m 5.363,10.75 a 0.964,0.964 0 0 1 -0.369,0.074 0.974,0.974 0 0 1 -0.378,-1.872 l 0.093,-0.039 a 0.961,0.961 0 0 1 0.285,-0.047 0.981,0.981 0 0 1 0.472,1.842 0.926,0.926 0 0 1 -0.101,0.042 z m 10.942,3.982 a 0.97437326,0.97437326 0 1 1 -1.827,-0.678 l 0.037,-0.1 a 0.982,0.982 0 0 1 1.861,0.439 1.012,1.012 0 0 1 -0.025,0.215 z m 2.02,-10.9 a 0.984,0.984 0 1 1 0.984,0.984 0.985,0.985 0 0 1 -0.982,-0.987 z m 19.473,-7.47 a 0.974,0.974 0 0 1 -0.046,1.813 l -0.135,0.049 a 0.984,0.984 0 1 1 -0.2,-1.948 0.969,0.969 0 0 1 0.287,0.047 z M 165.58,98.638 a 0.985,0.985 0 0 1 0,1.969 0.969,0.969 0 0 1 -0.286,-0.048 0.771,0.771 0 0 1 -0.106,-0.046 0.971,0.971 0 0 1 -0.466,-0.429 l -0.057,-0.107 a 0.971,0.971 0 0 1 -0.069,-0.355 0.986,0.986 0 0 1 0.986,-0.987 z m -4.891,-15.082 a 5.114,5.114 0 1 1 -5.118,-5.118 5.391,5.391 0 0 1 2,0.409 5.148,5.148 0 0 1 2.3,1.949 5.083,5.083 0 0 1 0.82,2.757 z m 12.856,0.428 a 0.976,0.976 0 0 1 -0.433,-0.245 l -0.071,-0.07 a 1.048,1.048 0 1 1 0.608,0.342 z m 12.282,2.483 a 0.986,0.986 0 0 1 0.985,-0.985 1.013,1.013 0 0 1 0.135,0.014 l 0.113,0.03 a 0.97460967,0.97460967 0 0 1 -0.5,1.884 l -0.108,-0.028 a 0.984,0.984 0 0 1 -0.623,-0.918 z"
         transform="translate(0.077,-52.609)"
         style="fill:#000000" />
    </g>
  </g>
</svg>
